<?xml version="1.0" encoding="utf-8"?>
<!-- Generator: Adobe Illustrator 24.0.0, SVG Export Plug-In . SVG Version: 6.00 Build 0)  -->
<svg version="1.1" id="ae37f038-3a9e-4b82-ad68-fc94ba16af2a"
	 xmlns="http://www.w3.org/2000/svg" xmlns:xlink="http://www.w3.org/1999/xlink" x="0px" y="0px" viewBox="0 0 1096 574.7"
	 style="enable-background:new 0 0 1096 574.7;" xml:space="preserve">
<style type="text/css">
	.st0{fill:none;}
	.st1{fill:#14102B;}
	.st2{opacity:0.25;}
	.st3{fill:#3F3D56;}
	.st4{fill:#1245A8;}
	.st5{opacity:0.1;enable-background:new    ;}
	.st6{opacity:0.15;}
	.st7{opacity:0.35;}
	.st8{opacity:0.1;fill:#1245A8;enable-background:new    ;}
	.st9{opacity:0.25;fill:#1245A8;enable-background:new    ;}
	.st10{fill:none;stroke:#3F3D56;stroke-width:4;stroke-miterlimit:10;}
	.st11{fill:#264ACA;}
	.st12{fill:url(#SVGID_1_);}
	.st13{fill:#BE6F72;}
	.st14{fill:#FF6F61;}
	.st15{opacity:0.1;}
	.st16{fill:url(#SVGID_2_);}
	.st17{fill:url(#SVGID_3_);}
	.st18{opacity:0.1;fill:none;stroke:#000000;stroke-miterlimit:10;enable-background:new    ;}
	.st19{fill:url(#SVGID_4_);}
	.st20{fill:#2F2E41;}
	.st21{fill:#FBBEBE;}
	.st22{fill:#E8E8F0;}
	.st23{fill:#F86D70;}
</style>
<pattern  y="574.7" width="36.9" height="49.5" patternUnits="userSpaceOnUse" id="ad310e25-2b04-44c8-bb7b-9823891" viewBox="0 -49.5 36.9 49.5" style="overflow:visible;">
	<g>
		<rect x="0" y="-49.5" class="st0" width="36.9" height="49.5"/>
		<rect x="0" y="-49.5" class="st0" width="36.9" height="49.5"/>
		<path d="M4.3-13.2c4.5,0,4.5,7,0,7S-0.2-13.2,4.3-13.2z"/>
		<path d="M4.5-17.2c4.5,0,4.5,7,0,7S0-17.2,4.5-17.2z"/>
		<path d="M4.5-20.9c4.5,0,4.5,7,0,7S0-20.9,4.5-20.9z"/>
		<path d="M3.4-24.7c4.5,0,4.5,7,0,7S-1.1-24.7,3.4-24.7z"/>
		<path d="M1.1-28.3l0.2-0.4c1-1.7,3.1-2.2,4.8-1.3c1.6,1,2.2,3.1,1.3,4.8l-0.2,0.4c-1,1.7-3.1,2.2-4.8,1.3
			C0.7-24.5,0.2-26.6,1.1-28.3z"/>
		<path d="M1.5-30.1l0.2-0.6c0.3-0.9,0.8-1.6,1.6-2.1c0.8-0.5,1.8-0.6,2.7-0.3c1.9,0.5,2.9,2.4,2.4,4.3l-0.2,0.6
			c-0.3,0.9-0.8,1.6-1.6,2.1c-0.8,0.5-1.8,0.6-2.7,0.4C2.1-26.3,1-28.2,1.5-30.1z"/>
		<path d="M1.6-33.9v-0.4c0-1.9,1.6-3.5,3.5-3.5c1.9,0,3.5,1.6,3.5,3.5v0.4c0,1.9-1.6,3.5-3.5,3.5C3.2-30.4,1.6-32,1.6-33.9z"/>
		<path d="M4.9-42.3c4.5,0,4.5,7,0,7S0.4-42.3,4.9-42.3z"/>
		<path d="M1.8-42v-0.2c0-1.9,1.6-3.5,3.5-3.5c1.9,0,3.5,1.6,3.5,3.5v0.2c0,1.9-1.6,3.5-3.5,3.5C3.4-38.5,1.8-40.1,1.8-42z"/>
		<path d="M6-49.3c4.5,0,4.5,7,0,7S1.5-49.3,6-49.3z"/>
		<path d="M10-14.1c4.5,0,4.5,7,0,7S5.5-14.1,10-14.1z"/>
		<path d="M6.6-20.9c4.5,0,4.5,7,0,7S2.1-20.9,6.6-20.9z"/>
		<path d="M8.5-27c4.5,0,4.5,7,0,7S4-27,8.5-27z"/>
		<path d="M8.5-29.3c4.5,0,4.5,7,0,7S4-29.3,8.5-29.3z"/>
		<path d="M14.9-33.8c4.5,0,4.5,7,0,7S10.4-33.8,14.9-33.8z"/>
		<path d="M9.8-38.5c4.5,0,4.5,7,0,7S5.3-38.5,9.8-38.5z"/>
		<path d="M10.6-45.1c4.5,0,4.5,7,0,7S6.1-45.1,10.6-45.1z"/>
		<path d="M10.6-49.5c4.5,0,4.5,7,0,7S6.1-49.5,10.6-49.5z"/>
		<path d="M12.8-18.1c2.6,0,2.6,4,0,4S10.3-18.1,12.8-18.1z"/>
		<path d="M13-20.4c2.6,0,2.6,4,0,4S10.4-20.4,13-20.4z"/>
		<path d="M13.1-21v-0.2c0-1.1,0.9-2,2-2s2,0.9,2,2v0.2c0,1.1-0.9,2-2,2S13.1-19.9,13.1-21z"/>
		<path d="M15.1-25.9c2.6,0,2.6,4,0,4S12.5-25.9,15.1-25.9z"/>
		<path d="M16.6-11.1c0.6,0,1,0.4,1,1s-0.4,1-1,1s-1-0.4-1-1S16.1-11.1,16.6-11.1z"/>
		<path d="M21.7-16.5c0.6,0,1,0.4,1,1c0,0.6-0.4,1-1,1s-1-0.4-1-1C20.7-16.1,21.2-16.5,21.7-16.5z"/>
		<path d="M16.9-8.9v0.4c0,0.6-0.4,1-1,1c-0.6,0-1-0.4-1-1v-0.4c0-0.6,0.4-1,1-1C16.4-9.9,16.9-9.5,16.9-8.9z"/>
		<path d="M16.5-4.8v0.2c0,0.6-0.4,1-1,1c-0.6,0-1-0.4-1-1v-0.2c0-0.6,0.4-1,1-1C16-5.8,16.5-5.3,16.5-4.8z"/>
		<path d="M15.5-2c0.6,0,1,0.4,1,1s-0.4,1-1,1c-0.6,0-1-0.4-1-1S14.9-2,15.5-2z"/>
		<path d="M10.6-2c0.6,0,1,0.4,1,1s-0.4,1-1,1c-0.6,0-1-0.4-1-1S10-2,10.6-2z"/>
		<path d="M10.4-4.7c0.6,0,1,0.4,1,1s-0.4,1-1,1c-0.6,0-1-0.4-1-1S9.8-4.7,10.4-4.7z"/>
		<path d="M7.4-6.2c0.6,0,1,0.4,1,1s-0.4,1-1,1s-1-0.4-1-1S6.8-6.2,7.4-6.2z"/>
		<path d="M11.9-7.1h0.4c0.6,0,1,0.4,1,1s-0.4,1-1,1h-0.4c-0.6,0-1-0.4-1-1S11.3-7.1,11.9-7.1z"/>
		<path d="M13.3-11l0.6-1.3c0.3-0.5,0.9-0.6,1.4-0.4c0,0,0,0,0,0c0.5,0.3,0.6,0.9,0.4,1.4c0,0,0,0,0,0L15-10
			c-0.3,0.5-0.9,0.6-1.4,0.4c0,0,0,0,0,0C13.2-9.9,13-10.5,13.3-11z"/>
		<path d="M18.4-19.3v-0.2c0-0.6,0.4-1,1-1s1,0.4,1,1v0.2c0,0.6-0.4,1-1,1S18.4-18.8,18.4-19.3z"/>
		<path d="M20.7-24.9l0.2-0.4c0.6-1.1,2.3-0.1,1.7,1l-0.2,0.4C21.8-22.8,20.1-23.8,20.7-24.9z"/>
		<path d="M22.1-29.4c-0.5-0.5-0.8-1.1-0.8-1.9c0-0.6,0.4-1,1-1s1,0.4,1,1c0,0.2,0.1,0.3,0.3,0.4c0.4,0.4,0.4,1,0,1.4c0,0,0,0,0,0
			C23.2-29,22.5-29,22.1-29.4z"/>
		<path d="M20.3-33.4l-0.5-1.7c-0.4-1.2,1.5-1.8,1.9-0.5l0.5,1.7C22.6-32.7,20.7-32.2,20.3-33.4z"/>
		<path d="M19.4-37h-0.2c-0.6,0-1-0.4-1-1s0.4-1,1-1h0.2c0.6,0,1,0.4,1,1S20-37,19.4-37z"/>
		<path d="M17.6-41.5l-0.2-0.4c-0.6-1.2,1.1-2.2,1.7-1l0.2,0.4C19.9-41.3,18.2-40.3,17.6-41.5z"/>
		<path d="M15.8-47.9v-0.6c0-0.6,0.4-1,1-1c0.6,0,1,0.4,1,1v0.6c0,0.6-0.4,1-1,1S15.8-47.3,15.8-47.9z"/>
		<path d="M14.3-49.4c0.6,0,1,0.4,1,1s-0.4,1-1,1c-0.6,0-1-0.4-1-1S13.8-49.4,14.3-49.4z"/>
		<path d="M14.3-41.3c0.6,0,1,0.4,1,1s-0.4,1-1,1c-0.6,0-1-0.4-1-1S13.8-41.3,14.3-41.3z"/>
		<path d="M17.1-36.5c0.6,0.3,1,1,1,1.6c0,0.6-0.4,1-1,1s-1-0.4-1-1c0,0.1,0.2,0.2,0,0.1C15-35.3,16-37,17.1-36.5z"/>
		<path d="M17.4-31.3c0.6,0,1,0.4,1,1s-0.4,1-1,1s-1-0.4-1-1S16.8-31.3,17.4-31.3z"/>
		<path d="M18.1-28.5c0.6,0,1,0.4,1,1s-0.4,1-1,1s-1-0.4-1-1S17.6-28.5,18.1-28.5z"/>
		<path d="M19-24.9l0.2,0.4c0.6,1.1-1.1,2.2-1.7,1l-0.2-0.4C16.7-25.1,18.4-26.1,19-24.9z"/>
		<path d="M17.9-16c0.6,0,1,0.4,1,1s-0.4,1-1,1s-1-0.4-1-1S17.4-16,17.9-16z"/>
		<path d="M24.6-16l0.6-0.9c0.3-0.4,1-0.5,1.4-0.2c0.4,0.3,0.5,0.8,0.3,1.2l-0.6,1c-0.3,0.5-0.9,0.6-1.4,0.3
			C24.6-15,24.4-15.5,24.6-16L24.6-16z"/>
		<path d="M34.9-29.7v-0.2c0-0.6,0.4-1,1-1s1,0.4,1,1v0.2c0,0.6-0.4,1-1,1S34.9-29.2,34.9-29.7z"/>
		<path d="M24-39.2c0.6,0,1,0.4,1,1s-0.4,1-1,1s-1-0.4-1-1S23.5-39.2,24-39.2z"/>
		<path d="M22.9-29c0.6,0,1,0.4,1,1s-0.4,1-1,1s-1-0.4-1-1S22.3-29,22.9-29z"/>
		<path d="M18.2-21.9l0.6,0.6c0.9,0.9-0.5,2.3-1.4,1.4l-0.6-0.6C15.9-21.4,17.3-22.8,18.2-21.9z"/>
	</g>
</pattern>
<title>contact us</title>
<rect y="-0.4" class="st1" width="1096" height="575.1"/>
<g class="st2">
	<ellipse class="st3" cx="479.4" cy="362.1" rx="11.4" ry="14.9"/>
	<path class="st3" d="M488.4,298.4c1.6-2.8,2.4-5.9,2.4-9.1c0-8.2-5.1-14.9-11.4-14.9S468,281,468,289.3c0,3.2,0.8,6.3,2.4,9.1
		c-3.2,5.7-3.2,12.6,0,18.2c-3.2,5.7-3.2,12.6,0,18.2c-1.6,2.8-2.4,5.9-2.4,9.1c0,8.2,5.1,14.9,11.4,14.9s11.4-6.7,11.4-14.9
		c0-3.2-0.8-6.3-2.4-9.1c3.2-5.7,3.2-12.6,0-18.2C491.6,310.9,491.6,304,488.4,298.4L488.4,298.4z"/>
	<ellipse class="st3" cx="479.4" cy="271.1" rx="11.4" ry="14.9"/>
	<ellipse class="st3" cx="479.4" cy="252.9" rx="11.4" ry="14.9"/>
	<path class="st4" d="M436.8,128.2c-1.6-2-3-4.1-4.2-6.2l29.9-4.9l-32.3,0.2c-6.3-13.7-6.6-29.3-1-43.2l43.4,22.5l-40-29.4
		c14.9-26.2,48.2-35.3,74.4-20.4c26.2,14.9,35.3,48.2,20.4,74.4c-1.4,2.5-3,4.8-4.8,7.1c2.4,3.1,4.5,6.4,6.2,9.9l-38.8,20.2
		l41.4-13.9c5.9,17.5,2.6,36.7-8.8,51.2c18.6,23.7,14.5,57.9-9.1,76.6c-23.7,18.6-57.9,14.5-76.6-9.1c-15.6-19.8-15.6-47.6,0-67.4
		C421.3,175.9,421.3,148,436.8,128.2L436.8,128.2z"/>
	<path class="st5" d="M534.2,161.9c0,12.2-4.1,24.1-11.7,33.7c18.6,23.7,14.5,57.9-9.1,76.6c-23.7,18.6-57.9,14.5-76.6-9.1
		c-15.6-19.8-15.6-47.6,0-67.4C429.5,186.4,534.2,155.8,534.2,161.9z"/>
</g>
<g class="st6">
	<ellipse class="st3" cx="612.3" cy="330.3" rx="8.5" ry="11.1"/>
	<path class="st3" d="M619,282.6c1.2-2.1,1.8-4.4,1.8-6.8c0-6.1-3.8-11.1-8.5-11.1s-8.5,5-8.5,11.1c0,2.4,0.6,4.7,1.8,6.8
		c-2.4,4.2-2.4,9.4,0,13.6c-2.4,4.2-2.4,9.4,0,13.6c-1.2,2.1-1.8,4.4-1.8,6.8c0,6.1,3.8,11.1,8.5,11.1s8.5-5,8.5-11.1
		c0-2.4-0.6-4.7-1.8-6.8c2.4-4.2,2.4-9.4,0-13.6C621.4,292,621.4,286.9,619,282.6z"/>
	<ellipse class="st3" cx="612.3" cy="262.2" rx="8.5" ry="11.1"/>
	<ellipse class="st3" cx="612.3" cy="248.6" rx="8.5" ry="11.1"/>
	<path class="st4" d="M580.4,155.5c-1.2-1.5-2.2-3-3.2-4.7l22.3-3.7l-24.2,0.2c-4.7-10.2-5-21.9-0.8-32.3l32.4,16.8l-29.9-22
		c11.2-19.5,36.2-26.2,55.7-15c19.5,11.2,26.2,36.2,15,55.7c-1,1.7-2.1,3.3-3.3,4.9c1.8,2.3,3.4,4.8,4.7,7.4l-29,15.1l30.9-10.4
		c4.4,13,1.9,27.4-6.6,38.3c13.9,17.7,10.9,43.3-6.8,57.2c-17.7,13.9-43.3,10.9-57.2-6.8c-11.7-14.8-11.7-35.6,0-50.4
		C568.9,191.1,568.9,170.3,580.4,155.5L580.4,155.5z"/>
	<path class="st5" d="M653.2,180.7c0,9.1-3.1,18-8.7,25.2c13.9,17.7,10.9,43.3-6.8,57.2c-17.7,13.9-43.3,10.9-57.2-6.8
		c-11.7-14.8-11.7-35.6,0-50.4C575,198.9,653.2,176.1,653.2,180.7z"/>
</g>
<g class="st7">
	<ellipse class="st3" cx="1038.6" cy="322.1" rx="11.4" ry="14.9"/>
	<path class="st3" d="M1029.6,258.4c-1.6-2.8-2.4-5.9-2.4-9.1c0-8.2,5.1-14.9,11.4-14.9s11.4,6.7,11.4,14.9c0,3.2-0.8,6.3-2.4,9.1
		c3.2,5.7,3.2,12.6,0,18.2c3.2,5.7,3.2,12.6,0,18.2c1.6,2.8,2.4,5.9,2.4,9.1c0,8.2-5.1,14.9-11.4,14.9s-11.4-6.7-11.4-14.9
		c0-3.2,0.8-6.3,2.4-9.1c-3.2-5.7-3.2-12.6,0-18.2C1026.4,270.9,1026.4,264,1029.6,258.4z"/>
	<ellipse class="st3" cx="1038.6" cy="231.1" rx="11.4" ry="14.9"/>
	<ellipse class="st3" cx="1038.6" cy="212.9" rx="11.4" ry="14.9"/>
	<path class="st4" d="M1081.2,88.2c1.6-2,3-4.1,4.2-6.2l-29.9-4.9l32.3,0.2c6.3-13.7,6.6-29.3,1-43.2l-43.4,22.5l40-29.4
		c-14.9-26.2-48.2-35.3-74.4-20.4c-26.2,14.9-35.3,48.2-20.4,74.4c1.4,2.5,3,4.8,4.8,7.1c-2.4,3.1-4.5,6.4-6.2,9.9l38.8,20.2
		l-41.4-13.9c-5.9,17.5-2.6,36.7,8.8,51.2c-18.6,23.7-14.5,57.9,9.1,76.6s57.9,14.5,76.6-9.1c15.6-19.8,15.6-47.6,0-67.4
		C1096.7,135.9,1096.7,108,1081.2,88.2L1081.2,88.2z"/>
	<path class="st5" d="M983.8,121.9c0,12.2,4.1,24.1,11.7,33.7c-18.6,23.7-14.5,57.9,9.1,76.6s57.9,14.5,76.6-9.1
		c15.6-19.8,15.6-47.6,0-67.4C1088.5,146.4,983.8,115.8,983.8,121.9z"/>
</g>
<g class="st6">
	<ellipse class="st3" cx="928.7" cy="324.3" rx="8.5" ry="11.1"/>
	<path class="st3" d="M922,276.6c-1.2-2.1-1.8-4.4-1.8-6.8c0-6.1,3.8-11.1,8.5-11.1s8.5,5,8.5,11.1c0,2.4-0.6,4.7-1.8,6.8
		c2.4,4.2,2.4,9.4,0,13.6c2.4,4.2,2.4,9.4,0,13.6c1.2,2.1,1.8,4.4,1.8,6.8c0,6.1-3.8,11.1-8.5,11.1s-8.5-5-8.5-11.1
		c0-2.4,0.6-4.7,1.8-6.8c-2.4-4.2-2.4-9.4,0-13.6C919.6,286,919.6,280.9,922,276.6z"/>
	<ellipse class="st3" cx="928.7" cy="256.2" rx="8.5" ry="11.1"/>
	<ellipse class="st3" cx="928.7" cy="242.6" rx="8.5" ry="11.1"/>
	<path class="st4" d="M960.6,149.5c1.2-1.5,2.2-3,3.2-4.7l-22.3-3.7l24.2,0.2c4.7-10.2,5-21.9,0.8-32.3l-32.4,16.8l29.9-22
		c-11.2-19.5-36.2-26.2-55.7-15c-19.5,11.2-26.2,36.2-15,55.7c1,1.7,2.1,3.3,3.3,4.9c-1.8,2.3-3.4,4.8-4.7,7.4l29,15.1L890,161.6
		c-4.4,13-1.9,27.4,6.6,38.3c-13.9,17.7-10.9,43.3,6.8,57.2c17.7,13.9,43.3,10.9,57.2-6.8c11.7-14.8,11.7-35.6,0-50.4
		C972.2,185.1,972.2,164.3,960.6,149.5L960.6,149.5z"/>
	<path class="st5" d="M887.8,174.7c0,9.1,3.1,18,8.7,25.2c-13.9,17.7-10.9,43.3,6.8,57.2c17.7,13.9,43.3,10.9,57.2-6.8
		c11.7-14.8,11.7-35.6,0-50.4C966,192.9,887.8,170.1,887.8,174.7z"/>
</g>
<g class="st7">
	<ellipse class="st3" cx="61.6" cy="322.1" rx="11.4" ry="14.9"/>
	<path class="st3" d="M70.6,258.4c1.6-2.8,2.4-5.9,2.4-9.1c0-8.2-5.1-14.9-11.4-14.9s-11.4,6.7-11.4,14.9c0,3.2,0.8,6.3,2.4,9.1
		c-3.2,5.7-3.2,12.6,0,18.2c-3.2,5.7-3.2,12.6,0,18.2c-1.6,2.8-2.4,5.9-2.4,9.1c0,8.2,5.1,14.9,11.4,14.9S73,312.1,73,303.9
		c0-3.2-0.8-6.3-2.4-9.1c3.2-5.7,3.2-12.6,0-18.2C73.8,270.9,73.8,264,70.6,258.4L70.6,258.4z"/>
	<ellipse class="st3" cx="61.6" cy="231.1" rx="11.4" ry="14.9"/>
	<ellipse class="st3" cx="61.6" cy="212.9" rx="11.4" ry="14.9"/>
	<path class="st4" d="M19,88.2c-1.6-2-3-4.1-4.2-6.2l29.9-4.9l-32.4,0.3c-6.3-13.7-6.6-29.3-1-43.2l43.4,22.5l-40-29.4
		C29.6,1.1,63-7.9,89.1,7c26.1,14.9,35.2,48.3,20.3,74.4c-1.4,2.4-2.9,4.7-4.7,6.9c2.4,3.1,4.5,6.4,6.2,9.9l-38.8,20.2l41.4-13.9
		c5.9,17.5,2.6,36.7-8.8,51.2c18.6,23.7,14.5,57.9-9.1,76.6s-57.9,14.5-76.6-9.1c-15.6-19.8-15.6-47.6,0-67.4
		C3.4,135.9,3.4,108,19,88.2L19,88.2z"/>
	<path class="st5" d="M116.4,121.9c0,12.2-4.1,24.1-11.7,33.7c18.6,23.7,14.5,57.9-9.1,76.6s-57.9,14.5-76.6-9.1
		c-15.6-19.8-15.6-47.6,0-67.4C11.7,146.4,116.4,115.8,116.4,121.9z"/>
</g>
<g class="st6">
	<ellipse class="st3" cx="171.4" cy="324.3" rx="8.5" ry="11.1"/>
	<path class="st3" d="M178.2,276.6c1.2-2.1,1.8-4.4,1.8-6.8c0-6.1-3.8-11.1-8.5-11.1s-8.5,5-8.5,11.1c0,2.4,0.6,4.7,1.8,6.8
		c-2.4,4.2-2.4,9.4,0,13.6c-2.4,4.2-2.4,9.4,0,13.6c-1.2,2.1-1.8,4.4-1.8,6.8c0,6.1,3.8,11.1,8.5,11.1s8.5-5,8.5-11.1
		c0-2.4-0.6-4.7-1.8-6.8c2.4-4.2,2.4-9.4,0-13.6C180.5,286,180.5,280.9,178.2,276.6z"/>
	<ellipse class="st3" cx="171.4" cy="256.2" rx="8.5" ry="11.1"/>
	<ellipse class="st3" cx="171.4" cy="242.6" rx="8.5" ry="11.1"/>
	<path class="st4" d="M139.6,149.5c-1.2-1.5-2.2-3-3.2-4.7l22.4-3.7l-24.2,0.2c-4.7-10.2-5-21.9-0.8-32.3l32.4,16.8l-29.9-22
		c11.2-19.5,36.2-26.2,55.7-14.9c19.5,11.2,26.2,36.2,14.9,55.7c-1,1.7-2.1,3.3-3.3,4.9c1.8,2.3,3.4,4.8,4.6,7.4l-29,15.1l30.9-10.4
		c4.4,13,1.9,27.4-6.6,38.3c13.9,17.7,10.9,43.3-6.8,57.2c-17.7,13.9-43.3,10.9-57.2-6.8c-11.7-14.8-11.7-35.6,0-50.4
		C128,185.1,128,164.3,139.6,149.5L139.6,149.5z"/>
	<path class="st5" d="M212.4,174.7c0,9.1-3.1,18-8.7,25.2c13.9,17.7,10.9,43.3-6.8,57.2c-17.7,13.9-43.3,10.9-57.2-6.8
		c-11.7-14.8-11.7-35.6,0-50.4C134.1,192.9,212.4,170.1,212.4,174.7z"/>
</g>
<ellipse class="st8" cx="548" cy="493.1" rx="548" ry="8.9"/>
<ellipse class="st8" cx="548" cy="565.9" rx="548" ry="8.9"/>
<ellipse class="st8" cx="548" cy="341.3" rx="548" ry="8.9"/>
<ellipse class="st8" cx="548" cy="417.2" rx="548" ry="8.9"/>
<path class="st8" d="M808.8,110.4c-3.6-0.7-7.3-0.3-10.6,1.2c-4.1,1.8-8.7,1.8-12.7,0c-4.8-2.1-10.3-2-15,0.3
	c-1.3,0.7-2.8,1.1-4.3,1.1c-6.1,0-11.1-6.1-12.2-14.2c1.2-0.9,2.2-2,3-3.3c3.6-5.7,9.1-9.4,15.3-9.4s11.6,3.6,15.2,9.3
	c2.2,3.5,6,5.6,10.1,5.5h0.2C802.6,100.8,806.8,104.7,808.8,110.4z"/>
<path class="st9" d="M827.3,85l-9.8,6.2l6-10.8c-1.7-1.3-3.8-2.1-5.9-2.1h-0.2c-0.7,0-1.3,0-2-0.1l-3.4,2.1l1.4-2.6
	c-2.4-0.8-4.4-2.4-5.8-4.4l-6,3.8l3.8-6.8c-3.5-4.2-8.2-6.7-13.3-6.7c-6.2,0-11.7,3.7-15.3,9.4c-2.1,3.5-6,5.6-10.1,5.4h-0.3
	c-6.8,0-12.4,7.8-12.4,17.3c0,9.6,5.5,17.3,12.4,17.3c1.5,0,3-0.4,4.3-1.1c4.7-2.3,10.2-2.4,15-0.3c4.1,1.8,8.7,1.8,12.7,0
	c4.8-2.1,10.2-2,14.9,0.3c1.3,0.7,2.8,1.1,4.3,1.1c6.8,0,12.4-7.8,12.4-17.3C829.9,91.9,829,88.3,827.3,85z"/>
<path class="st8" d="M391.3,105c-2.5-0.5-5.1-0.2-7.4,0.8c-2.8,1.3-6.1,1.3-8.9,0c-3.4-1.5-7.2-1.4-10.5,0.2c-0.9,0.5-2,0.7-3,0.8
	c-4.3,0-7.8-4.3-8.5-9.9c0.8-0.6,1.6-1.4,2.1-2.3c2.5-4,6.4-6.6,10.7-6.6s8.1,2.6,10.6,6.5c1.5,2.4,4.2,3.9,7.1,3.9h0.1
	C386.9,98.3,389.8,101,391.3,105z"/>
<path class="st9" d="M404.2,87.2l-6.9,4.4l4.2-7.6c-1.2-0.9-2.6-1.5-4.1-1.5h-0.1c-0.5,0-1,0-1.4-0.1l-2.3,1.5l1-1.8
	c-1.7-0.6-3.1-1.7-4.1-3.1l-4.2,2.6l2.6-4.8c-2.2-2.9-5.7-4.6-9.3-4.7c-4.3,0-8.2,2.6-10.7,6.6c-1.5,2.4-4.2,3.9-7.1,3.8h-0.2
	c-4.8,0-8.7,5.4-8.7,12.1s3.9,12.1,8.7,12.1c1,0,2.1-0.3,3-0.8c3.3-1.6,7.1-1.7,10.5-0.2c1.4,0.6,2.9,1,4.5,1c1.5,0,3-0.3,4.4-0.9
	c3.3-1.4,7.1-1.4,10.4,0.2c0.9,0.5,2,0.7,3,0.7c4.8,0,8.7-5.4,8.7-12.1C406.1,92.1,405.4,89.5,404.2,87.2z"/>
<path class="st8" d="M269.6,183.4c2.5-0.5,5.1-0.2,7.4,0.8c2.8,1.3,6.1,1.3,8.9,0c3.4-1.5,7.2-1.4,10.5,0.2c0.9,0.5,2,0.8,3,0.8
	c4.3,0,7.8-4.3,8.5-9.9c-0.8-0.6-1.6-1.4-2.1-2.3c-2.5-4-6.4-6.6-10.7-6.6s-8.1,2.5-10.6,6.5c-1.5,2.4-4.2,3.9-7.1,3.9h-0.1
	C273.9,176.7,271,179.4,269.6,183.4z"/>
<path class="st9" d="M256.6,165.7l6.9,4.4l-4.2-7.6c1.2-0.9,2.6-1.5,4.2-1.5h0.1c0.5,0,1,0,1.4-0.1l2.3,1.5l-1-1.8
	c1.6-0.6,3.1-1.7,4.1-3.1l4.2,2.6l-2.6-4.8c2.2-2.9,5.7-4.6,9.3-4.7c4.3,0,8.2,2.6,10.7,6.6c1.5,2.4,4.2,3.9,7.1,3.8h0.2
	c4.8,0,8.7,5.4,8.7,12.1s-3.9,12.1-8.7,12.1c-1,0-2.1-0.3-3-0.8c-3.3-1.6-7.1-1.7-10.5-0.2c-1.4,0.6-2.9,1-4.5,1
	c-1.5,0-3-0.3-4.4-0.9c-3.3-1.4-7.1-1.4-10.4,0.2c-0.9,0.5-2,0.7-3,0.7c-4.8,0-8.7-5.4-8.7-12.1C254.8,170.5,255.4,168,256.6,165.7z
	"/>
<path class="st10" d="M664.3,490.3c2.6-4.8-0.3-10.8-3.8-15.1s-7.6-8.8-7.5-14.3c0.1-7.9,8.5-12.6,15.2-16.7c5-3.1,9.6-6.8,13.7-11
	c1.7-1.6,3.1-3.5,4.2-5.6c1.4-3.1,1.3-6.6,1.3-10c-0.3-11.3-0.8-22.5-1.7-33.8"/>
<path class="st4" d="M698.5,383.2c-0.2-4.2-2.5-8-6.2-10.1l-2.8,5.5l0.1-6.6c-6.5-1.9-13.4,1.8-15.3,8.3c-1.9,6.5,1.8,13.4,8.3,15.3
	c6.5,1.9,13.4-1.8,15.3-8.3C698.3,386,698.5,384.6,698.5,383.2z"/>
<path class="st4" d="M676.5,466.5c-3.1,6-10.5,8.4-16.6,5.3c-3.9-2-6.4-5.9-6.7-10.3c-0.1-1.7,0.2-3.4,0.8-5c2.5-6.3,9.6-9.5,16-7
	c3.2,1.3,5.8,3.9,7,7.1l-7.7,6.3l8.5-2C677.8,462.9,677.4,464.8,676.5,466.5z"/>
<path class="st4" d="M670.4,442.6c-6.8,0.3-12.6-4.9-12.9-11.7c-0.3-5.7,3.5-10.9,9-12.4l-0.1,5.1l2.8-5.5l0,0
	c6.8-0.3,12.6,4.9,12.9,11.7S677.2,442.3,670.4,442.6L670.4,442.6z"/>
<path class="st4" d="M700.3,422.8c-6.8,0.4-12.6-4.9-12.9-11.7c-0.4-6.8,4.9-12.6,11.7-12.9c2.3-0.1,4.7,0.4,6.7,1.6l-2.2,6l4.4-4.4
	c5,4.6,5.3,12.4,0.8,17.4C706.6,421.2,703.5,422.6,700.3,422.8L700.3,422.8z"/>
<path class="st5" d="M696.8,386.5c-2.8,0.3-5.6,1.2-8.5,1.4s-6-0.5-7.8-2.7c-0.8-1.3-1.6-2.6-2.3-4c-0.8-1.2-1.8-2.2-3.1-2.9
	c-3.1,6.1-0.7,13.5,5.4,16.6c6.1,3.1,13.5,0.7,16.6-5.4c0.5-1,0.8-2,1.1-3C697.7,386.4,697.3,386.5,696.8,386.5z"/>
<path class="st5" d="M700.3,422.8c-6.8,0.3-12.6-4.9-12.9-11.7c-0.1-2,0.3-4,1.2-5.8c1,0.7,1.8,1.5,2.5,2.5c0.7,1.4,1.6,2.8,2.4,4.1
	c1.9,2.3,5.2,3,8.2,2.8s5.8-1,8.8-1.3c0.4,0,0.8-0.1,1.2-0.1C710.5,418.6,705.8,422.5,700.3,422.8z"/>
<path class="st5" d="M670.4,442.6c-6.8,0.3-12.6-4.9-12.9-11.7c-0.1-1.9,0.3-3.8,1.1-5.6c1,0.7,1.9,1.5,2.6,2.5
	c0.8,1.4,1.7,2.8,2.7,4.2c2.1,2.3,5.6,3.1,8.7,3s6-0.8,9-1C680.1,438.9,675.6,442.4,670.4,442.6z"/>
<path class="st5" d="M676.5,466.5c-3.1,6-10.5,8.4-16.6,5.3c-3.9-2-6.4-5.9-6.7-10.3c-0.1-1.7,0.2-3.4,0.8-5c1,0.7,1.9,1.5,2.7,2.4
	c1.2,1.4,1.9,3,3.3,4.4c2.5,2.5,6.6,3.5,10.2,3.6C672.3,466.9,674.4,466.8,676.5,466.5z"/>
<path class="st10" d="M54.3,418.3c2.6-4.8-0.3-10.8-3.8-15.1s-7.6-8.8-7.5-14.3c0.1-7.9,8.5-12.6,15.2-16.7c5-3.1,9.6-6.8,13.7-11
	c1.7-1.6,3.1-3.5,4.2-5.6c1.4-3.1,1.4-6.6,1.3-10c-0.3-11.3-0.9-22.5-1.7-33.8"/>
<path class="st4" d="M88.4,311.2c-0.2-4.2-2.5-8-6.1-10.1l-2.8,5.5l0.1-6.6c-6.5-1.9-13.4,1.8-15.3,8.3c-1.9,6.5,1.8,13.4,8.3,15.3
	c6.5,1.9,13.4-1.8,15.3-8.3C88.3,314,88.5,312.6,88.4,311.2L88.4,311.2z"/>
<path class="st4" d="M66.5,394.5c-3.1,6-10.5,8.4-16.6,5.3c-3.9-2-6.4-5.9-6.7-10.3c-0.1-1.7,0.2-3.4,0.8-5c2.5-6.3,9.6-9.5,16-7
	c3.2,1.3,5.8,3.9,7,7.1l-7.7,6.3l8.5-2C67.8,390.9,67.4,392.8,66.5,394.5z"/>
<path class="st4" d="M60.4,370.6c-6.8,0.3-12.6-4.9-12.9-11.7c-0.3-5.7,3.5-10.9,9-12.4l-0.1,5.1l2.8-5.5l0,0
	c6.8-0.3,12.6,4.9,12.9,11.7C72.4,364.6,67.2,370.3,60.4,370.6L60.4,370.6z"/>
<path class="st4" d="M90.3,350.8c-6.8,0.4-12.6-4.9-12.9-11.7c-0.4-6.8,4.9-12.6,11.7-12.9c2.3-0.1,4.7,0.4,6.7,1.6l-2.2,6l4.4-4.4
	c5,4.6,5.3,12.4,0.8,17.4C96.6,349.2,93.5,350.6,90.3,350.8L90.3,350.8z"/>
<path class="st5" d="M86.8,314.5c-2.8,0.3-5.6,1.2-8.5,1.4s-6-0.5-7.8-2.7c-0.8-1.3-1.6-2.6-2.3-4c-0.8-1.2-1.8-2.2-3.1-2.9
	c-3.1,6.1-0.7,13.5,5.4,16.6c6.1,3.1,13.5,0.7,16.6-5.4c0.5-1,0.8-2,1.1-3C87.7,314.4,87.3,314.4,86.8,314.5z"/>
<path class="st5" d="M90.3,350.8c-6.8,0.3-12.6-4.9-12.9-11.7c-0.1-2,0.3-4,1.2-5.8c1,0.7,1.8,1.5,2.5,2.5c0.7,1.4,1.6,2.8,2.4,4.1
	c1.9,2.3,5.2,3,8.2,2.9s5.8-1,8.8-1.3c0.4,0,0.8-0.1,1.2-0.1C100.5,346.6,95.8,350.5,90.3,350.8z"/>
<path class="st5" d="M60.4,370.6c-6.8,0.3-12.6-4.9-12.9-11.7c-0.1-1.9,0.3-3.8,1.1-5.6c1,0.7,1.9,1.5,2.6,2.5
	c0.8,1.4,1.7,2.8,2.7,4.2c2.1,2.3,5.6,3.1,8.7,3s6-0.8,9-1C70.1,366.9,65.6,370.4,60.4,370.6z"/>
<path class="st5" d="M66.5,394.5c-3.1,6-10.5,8.4-16.6,5.3c-3.9-2-6.4-5.9-6.7-10.3c-0.1-1.7,0.2-3.4,0.8-5c1,0.7,1.9,1.5,2.7,2.4
	c1.2,1.4,1.9,3,3.3,4.4c2.5,2.5,6.6,3.5,10.2,3.6C62.3,394.9,64.4,394.8,66.5,394.5z"/>
<path class="st10" d="M460.5,335.9c-2.6-4.8,0.3-10.8,3.8-15.1s7.5-8.8,7.5-14.3c-0.1-7.9-8.5-12.6-15.2-16.7
	c-5-3.1-9.5-6.8-13.6-11c-1.7-1.6-3.1-3.5-4.2-5.6c-1.4-3.1-1.3-6.6-1.3-10c0.3-11.3,0.9-22.5,1.7-33.8"/>
<path class="st4" d="M426.4,228.9c0.2-4.2,2.5-8,6.1-10.1l2.8,5.5l-0.1-6.6c1.3-0.4,2.7-0.5,4-0.5c6.8,0.3,12,6.1,11.7,12.9
	c-0.3,6.8-6.1,12-12.9,11.7C431.3,241.4,426.1,235.6,426.4,228.9L426.4,228.9z"/>
<path class="st4" d="M448.3,312.2c3.1,6,10.5,8.4,16.6,5.3c6-3.1,8.4-10.5,5.3-16.6c-3.1-6-10.5-8.4-16.6-5.3
	c-2.7,1.4-4.8,3.8-5.9,6.7l7.7,6.3l-8.5-2C447,308.5,447.4,310.4,448.3,312.2z"/>
<path class="st4" d="M454.4,288.3c6.8,0.3,12.6-4.9,12.9-11.7c0.3-5.7-3.4-10.9-9-12.4l0.1,5.1l-2.8-5.5l0,0
	c-6.8-0.3-12.6,4.9-12.9,11.7c-0.1,1.4,0.1,2.8,0.5,4.2C444.7,284.5,449.2,288,454.4,288.3z"/>
<path class="st4" d="M424.5,268.4c6.8,0.3,12.6-4.9,12.9-11.7s-4.9-12.6-11.7-12.9c-2.3-0.1-4.7,0.4-6.7,1.6l2.2,6l-4.5-4.3
	c-2.4,2.2-3.9,5.2-4,8.5c-0.1,1.1,0,2.3,0.3,3.4C414.4,264.3,419.1,268.1,424.5,268.4z"/>
<path class="st5" d="M428,232.1c2.8,0.3,5.6,1.2,8.5,1.4s6-0.5,7.8-2.7c0.8-1.3,1.6-2.6,2.3-4c0.8-1.2,1.8-2.2,3.1-2.9
	c3.1,6.1,0.7,13.5-5.4,16.6s-13.5,0.7-16.6-5.4c-0.5-1-0.9-2-1.1-3C427.1,232,427.6,232.1,428,232.1z"/>
<path class="st5" d="M424.5,268.4c6.8,0.3,12.6-4.9,12.9-11.7c0.1-2-0.3-4-1.2-5.8c-1,0.7-1.8,1.5-2.5,2.5c-0.7,1.4-1.6,2.8-2.4,4.1
	c-1.9,2.3-5.2,3-8.2,2.9s-5.8-1-8.8-1.3c-0.4,0-0.8-0.1-1.2-0.1C414.4,264.2,419,268.1,424.5,268.4z"/>
<path class="st5" d="M454.4,288.3c6.8,0.3,12.6-4.9,12.9-11.7c0.1-1.9-0.3-3.9-1.1-5.6c-1,0.7-1.9,1.5-2.6,2.5
	c-0.8,1.4-1.7,2.8-2.7,4.1c-2.1,2.3-5.6,3.1-8.7,3s-6-0.8-9-1C444.8,284.6,449.2,288,454.4,288.3z"/>
<path class="st5" d="M448.3,312.2c3.1,6,10.6,8.4,16.6,5.3c5.5-2.9,8-9.4,5.9-15.3c-1,0.7-1.9,1.5-2.7,2.4c-1.2,1.4-2,3-3.3,4.4
	c-2.5,2.5-6.6,3.5-10.2,3.6C452.5,312.5,450.4,312.4,448.3,312.2z"/>
<circle class="st3" cx="779.7" cy="238.2" r="100"/>
<path class="st11" d="M822.6,264c-3.5-3.5-11.8-8.7-16-10.7c-4.8-2.3-6.5-2.3-9.9,0.2c-2.8,2-4.7,3.9-7.9,3.2s-9.7-5.5-15.9-11.7
	s-11-12.6-11.7-15.9s1.2-5.1,3.2-7.9c2.4-3.4,2.5-5.1,0.2-9.9c-2-4.1-7.2-12.5-10.7-16s-4.3-2.7-6.2-2c-2,0.8-3.9,1.8-5.7,3
	c-3.5,2.3-5.4,4.3-6.8,7.2s-2.9,8.3,5,22.5c5.9,10.9,13.3,20.8,22.1,29.5l0,0l0,0c8.7,8.8,18.7,16.3,29.6,22.1
	c14.2,8,19.6,6.4,22.5,5s4.9-3.3,7.2-6.8c1.2-1.8,2.2-3.7,3-5.7C825.4,268.2,826.2,267.4,822.6,264z"/>
<path class="st5" d="M779.7,138.2c-55.2,0-100,44.7-100,100c0,55.2,44.7,100,100,100c55.2,0,100-44.7,100-100c0,0,0-0.1,0-0.1
	C879.7,183,834.9,138.3,779.7,138.2z M779.7,324.8c-47.9,0-86.7-38.8-86.7-86.7c0-47.9,38.8-86.7,86.7-86.7
	c47.9,0,86.7,38.8,86.7,86.7v0C866.4,286,827.6,324.9,779.7,324.8L779.7,324.8L779.7,324.8z"/>
<circle class="st3" cx="550.1" cy="390" r="100"/>
<path class="st11" d="M606.9,359.8L577,390.3c-0.2,0.2-0.2,0.5,0,0.8c0,0,0,0,0,0l21,22.3c1.4,1.4,1.4,3.7,0,5.1
	c-0.7,0.7-1.6,1-2.5,1.1c-1,0-1.9-0.4-2.6-1.1L572,396.2c-0.2-0.2-0.6-0.2-0.8,0l-5.1,5.1c-4.2,4.3-10,6.7-16,6.7
	c-6.1,0-12-2.5-16.3-6.9l-4.9-5c-0.2-0.2-0.6-0.2-0.8,0l-20.8,22.2c-1.4,1.4-3.7,1.4-5.1,0c0,0,0,0,0,0c-1.4-1.4-1.4-3.7,0-5.1
	c0,0,0,0,0,0l20.9-22.3c0.2-0.2,0.2-0.6,0-0.8l-29.9-30.5c-0.2-0.2-0.6-0.2-0.8,0c-0.1,0.1-0.2,0.2-0.2,0.4v60.9
	c0,4.9,4,8.9,8.9,8.9H599c4.9,0,8.9-4,8.9-8.9v-60.9c0-0.3-0.2-0.6-0.5-0.6C607.2,359.6,607,359.7,606.9,359.8z"/>
<path class="st11" d="M550.1,400.9c4.1,0,8-1.6,10.9-4.5l43.6-44.4c-1.5-1.3-3.5-2-5.5-2h-97.9c-2,0-4,0.7-5.5,2l43.6,44.4
	C542.1,399.3,546,400.9,550.1,400.9z"/>
<path class="st5" d="M548.8,290.1c-55.2,0-100,44.7-100,100c0,55.2,44.7,100,99.9,100c55.2,0,100-44.7,100-100c0,0,0-0.1,0-0.1
	C648.7,334.8,604,290.1,548.8,290.1z M548.8,476.7c-47.9,0-86.7-38.8-86.7-86.7c0-47.9,38.8-86.7,86.7-86.7
	c47.9,0,86.7,38.8,86.7,86.7l0,0C635.5,437.9,596.7,476.7,548.8,476.7z"/>
<circle class="st3" cx="312.9" cy="315.4" r="100"/>
<path class="st11" d="M312.9,267.5L273,359.5l3.7,3.7l36.1-15.9l36.1,15.9l3.7-3.7L312.9,267.5z"/>
<path class="st5" d="M312.9,215.4c-55.2,0-100,44.7-100.1,99.9c0,55.2,44.7,100,99.9,100.1c55.2,0,100-44.7,100.1-99.9
	c0,0,0,0,0-0.1C412.8,260.2,368.1,215.4,312.9,215.4z M312.9,402c-47.9,0-86.7-38.8-86.7-86.7s38.8-86.7,86.7-86.7
	s86.7,38.8,86.7,86.7c0,0,0,0,0,0C399.5,363.2,360.7,402,312.9,402L312.9,402z"/>
<linearGradient id="SVGID_1_" gradientUnits="userSpaceOnUse" x1="819.0939" y1="-156.5376" x2="819.0939" y2="15.54" gradientTransform="matrix(1 0 0 -1 -52 413.37)">
	<stop  offset="0" style="stop-color:#808080;stop-opacity:0.25"/>
	<stop  offset="0.54" style="stop-color:#808080;stop-opacity:0.12"/>
	<stop  offset="1" style="stop-color:#808080;stop-opacity:0.1"/>
</linearGradient>
<path class="st12" d="M788.9,441.3c-0.9-2.2-1.8-4.4-2.8-6.6c-0.8-2.1-1.9-4.1-3.4-5.9c-0.6-0.6-1.2-1.1-2-1.5
	c-0.8-0.3-1.7-0.5-2.6-0.5c-1.4-0.2-2.7-0.2-4.1-0.1c-0.5-0.2-1.1-0.4-1.7-0.6c6.1-1.6,10.4-7,10.6-13.3c0-0.2,0-0.4,0-0.6
	c0-7.9-6.3-14.3-14.2-14.3c0,0,0,0,0,0c-2.6,0-5.2,0.7-7.5,2.1c-6.1-1.4-12.3,1.6-15,7.2c-3.3,3.2-5.2,7.7-5.1,12.3
	c0,0.2,0,0.4,0,0.6c0.3,7.8,5.3,14,11.6,14.6c-0.7,0.3-1.3,0.7-1.8,1.2c-1.9,1.9-2.3,4.8-2.5,7.5l-0.2,2l-3.4,1.2
	c-0.3,0.1-0.5,0.5-0.4,0.8c0,0.1,0.1,0.2,0.2,0.3l3.2,2.3c0,0.2,0,0.4,0,0.6s0,0.4,0.1,0.7c-0.5,0.5-1,1.1-1.2,1.8
	c-0.3,1-0.4,2.2-0.3,3.2l0.1,2.8c0,2.1,0.3,4.2,0.8,6.2c0.4,1.2,2.2,4.2,3.5,4.3c-1.2,5.5-1.5,17.1-1.5,17.1c-0.2,0.2,0.3,0.3,1,0.4
	c0.7,5.5,3.1,21,7.2,27.8c0.7,2.2,1.2,4.5,1.6,6.8c0,0,1.2,14.7,2.8,19.1c1.3,3.7,2.4,12.9,2.7,15.6c-0.6,0.1-1,0.6-1.1,1.1
	c-0.8,2.4-5.9,6-5.9,6c-1.6,0.8-3.1,1.7-4.4,2.8c-1.6,1.5-1.5,2.8,5.6,1.9c13.8-1.6,16.2-6,16.2-6s-0.2-0.7-0.5-1.7
	c-0.4-1.5-1-2.9-1.8-4.3c-0.2-0.2-0.4,0.1-0.6,0.6c-1-6.4-1.4-12.9-0.9-19.3c0,0,0.4-6.8-1.6-11.5c-0.4-2.5-0.4-5.1,0-7.5
	c0.8-3.2-3.2-18.7-3.2-18.7l-2.3-11.4c0.3,0.4,0.5,0.8,0.6,1.3l0.1,0.2l0.1,0.3c0,0.1,0.1,0.2,0.2,0.3c1.5,6.4,5.8,24.1,5.8,26.7
	c0,3.2,3.9,11.1,3.9,11.1s1.6,13.1,4.3,18.3c2.1,3.9,2.2,9.7,2,12.2l0,0c0,0-0.5,3.3-1.3,4.1c-0.6,0.8-1.1,1.7-1.5,2.6l-0.1,0.2
	c0,0-1.2,2.4-0.4,2.8c3,1.2,6.3,1.6,9.5,1.2c0,0,1.6-2,1.6-2.8c0-0.5-0.1-1-0.2-1.4c-0.3-1.9-0.8-4.8-0.8-4.9c0.3-1.3-1-4.8-1-4.8
	l-0.4-11.1c0.7-7.5-0.2-15.1-2.8-22.3c0,0-2-7.2-1.6-9.1s-0.8-23.1-0.8-23.1l-0.1-0.3c-0.1-1.5-0.1-3,0.1-4.5
	c0.4-4.8-1.2-14.7-1.6-15.1c-0.3-1.1-0.5-2.2-0.6-3.3c0.1-0.8,0.4-3.3,0.7-6.3c3.9-0.1,7.8-0.5,11.6-1c0.4,0,0.7-0.1,1-0.4
	c0.2-0.2,0.2-0.5,0.2-0.8C793.4,452.6,791.2,446.8,788.9,441.3z M781,453.9c0.4-2.8,0.8-5.6,1.3-7.7l0.1,0.2
	c0.8,2.1,1.4,4.2,1.9,6.3C783.2,453.2,782.1,453.6,781,453.9z"/>
<path class="st13" d="M750.4,486c0,0,2.4,21.2,7.5,29.5c0.7,2.2,1.2,4.4,1.6,6.7c0,0,1.2,14.5,2.8,18.9s2.8,16.1,2.8,16.1
	s5.5,6.3,7.5,1.2c-1.2-6.7-1.6-13.6-1.2-20.4c0,0,0.4-6.7-1.6-11.4c-0.4-2.5-0.4-5,0-7.5c0.8-3.2-3.2-18.5-3.2-18.5l-3.1-15.3
	L750.4,486z"/>
<path class="st14" d="M775.1,562.3c0,0-2.4,4.3-16.1,5.9c-7.1,0.8-7.2-0.5-5.6-1.9c1.4-1.1,2.8-2,4.4-2.8c0,0,5.1-3.5,5.9-5.9
	s3.5-0.4,3.5-0.4c3.9,5.9,4.7-1.6,5.5-0.8c0.8,1.3,1.4,2.7,1.8,4.2C774.9,561.6,775.1,562.3,775.1,562.3z"/>
<path class="st5" d="M775.1,562.3c0,0-2.4,4.3-16.1,5.9c-7.1,0.8-7.2-0.5-5.6-1.9c1.1,0.7,3.4,1,7.9-0.8c6.5-2.7,11.3-4.2,13.2-4.8
	C774.9,561.6,775.1,562.3,775.1,562.3z"/>
<path class="st5" d="M771.2,537.9c0,0,0.4-6.7-1.6-11.4c-0.4-2.5-0.4-5,0-7.5c0.8-3.2-3.2-18.5-3.2-18.5l-3.1-15.3l-2.7,0.2
	l3.1,15.2c0,0,3.9,15.3,3.2,18.5c-0.4,2.5-0.4,5,0,7.5c2,4.7,1.6,11.4,1.6,11.4c-0.5,6.8-0.1,13.7,1.2,20.4
	c-0.2,0.6-0.6,1.2-1.1,1.6c1.5,0.7,3,0.6,3.9-1.6C771.1,551.6,770.7,544.8,771.2,537.9z"/>
<path class="st3" d="M768.6,399.8c-2.6,0-5.2,0.7-7.4,2.1c-6.1-1.4-12.3,1.6-15,7.2c-3.3,3.2-5.2,7.6-5.1,12.2
	c0,8.4,5.6,15.1,12.6,15.1c5,0,9.4-3.6,11.4-8.7c1.2,0.3,2.3,0.5,3.5,0.5c7.8,0,14.1-6.3,14.1-14.2
	C782.8,406.1,776.4,399.8,768.6,399.8L768.6,399.8z"/>
<path class="st13" d="M780.2,488l1.2,3.1c0,0,1.2,20.8,0.8,22.8s1.6,9,1.6,9c2.5,7,3.5,14.6,2.8,22l0.4,11c0,0,1.6,4.3,0.8,5.1
	s-6.7-0.7-6.7-0.7s0.8-8.3-2-13.4s-4.3-18.1-4.3-18.1s-3.9-7.9-3.9-11s-6.3-28.7-6.3-28.7L780.2,488z"/>
<path class="st3" d="M749.6,487.6c0,0,0.4-14.2,2-18.5c0.8-2,1.4-4.1,1.8-6.3c0,0,23.8,4.3,25.8,2.7c0,0,0.4,5.5,0.8,5.9
	s2,10.2,1.6,14.9s0,4.7,0,4.7s-16.1,2.4-16.5,0s-1.6-2.3-1.6-2.3S748.8,488.4,749.6,487.6z"/>
<g class="st15">
	<path d="M762.5,487.6c0,0-9.9-0.3-12.9-0.8c0,0.5,0,0.8,0,0.8c-0.8,0.8,13.8,1.2,13.8,1.2c0.2,0,0.4,0.1,0.5,0.2
		C763.4,487.6,762.5,487.6,762.5,487.6z"/>
	<path d="M779.8,471.5c-0.4-0.4-0.8-5.9-0.8-5.9c-0.2,0.1-0.4,0.2-0.7,0.2c0.1,1.7,0.4,4.2,0.7,4.5s2,10.2,1.6,14.9s0,4.7,0,4.7
		s-12.8,1.9-15.8,0.6c0,0.2,0.1,0.4,0.1,0.6c0.4,2.4,16.5,0,16.5,0s-0.4,0,0-4.7S780.2,471.9,779.8,471.5z"/>
	
		<pattern  id="SVGID_2_" xlink:href="#ad310e25-2b04-44c8-bb7b-9823891" patternTransform="matrix(1 0 0 -1 -72.72 -16092.7695)"  class="st15">
	</pattern>
	<path class="st16" d="M762.5,487.6c0,0-9.9-0.3-12.9-0.8c0,0.5,0,0.8,0,0.8c-0.8,0.8,13.8,1.2,13.8,1.2c0.2,0,0.4,0.1,0.5,0.2
		C763.4,487.6,762.5,487.6,762.5,487.6z"/>
	
		<pattern  id="SVGID_3_" xlink:href="#ad310e25-2b04-44c8-bb7b-9823891" patternTransform="matrix(1 0 0 -1 -72.72 -16092.7695)"  class="st15">
	</pattern>
	<path class="st17" d="M779.8,471.5c-0.4-0.4-0.8-5.9-0.8-5.9c-0.2,0.1-0.4,0.2-0.7,0.2c0.1,1.7,0.4,4.2,0.7,4.5s2,10.2,1.6,14.9
		s0,4.7,0,4.7s-12.8,1.9-15.8,0.6c0,0.2,0.1,0.4,0.1,0.6c0.4,2.4,16.5,0,16.5,0s-0.4,0,0-4.7S780.2,471.9,779.8,471.5z"/>
</g>
<path class="st13" d="M766.9,424.5c0.3,0.8,0.9,1.4,1.5,1.9c0.4,0.3,0.9,0.5,1.4,0.6c-0.9,0.5-1.8,0.9-2.7,1.4c-1.4,0.9-2.7,1.9-4,3
	c-1.3,1.1-2.9,1.7-4.6,1.8c1.2-1.6,1.4-3.7,0.6-5.6c-0.4-0.6-0.6-1.3-0.7-1.9c0-1.1,1-2,1.9-2.6c0.8-0.5,1.5-1,2.3-1.5
	c0.6-0.4,1.5-1.2,2.3-1.2s0.9,0.7,1,1.4C766.2,422.8,766.5,423.7,766.9,424.5z"/>
<path class="st5" d="M766.9,424.5c0.3,0.8,0.9,1.4,1.5,1.9c0.4,0.3,0.9,0.5,1.4,0.6c-0.9,0.5-1.8,0.9-2.7,1.4c-1.4,0.9-2.7,1.9-4,3
	c-1.3,1.1-2.9,1.7-4.6,1.8c1.2-1.6,1.4-3.7,0.6-5.6c-0.4-0.6-0.6-1.3-0.7-1.9c0-1.1,1-2,1.9-2.6c0.8-0.5,1.5-1,2.3-1.5
	c0.6-0.4,1.5-1.2,2.3-1.2s0.9,0.7,1,1.4C766.2,422.8,766.5,423.7,766.9,424.5z"/>
<circle class="st13" cx="776.1" cy="438.7" r="9"/>
<path class="st14" d="M788.9,567c0,0.8-1.6,2.8-1.6,2.8c-3.2,0.4-6.4,0-9.4-1.2c-0.8-0.4,0.4-2.8,0.4-2.8l0.1-0.2
	c0.4-0.9,0.9-1.8,1.5-2.6c0.8-0.8,1.3-4,1.3-4c2.4-4,6.8,1.7,6.8,1.7s0.5,3,0.8,4.8C788.8,566.3,788.9,566.8,788.9,567z"/>
<path class="st5" d="M788.9,567c0,0.8-1.6,2.8-1.6,2.8c-3.2,0.4-6.4,0-9.4-1.2c-0.8-0.4,0.4-2.8,0.4-2.8l0.1-0.2
	c2.7,1.2,5.6,1.8,8.6,1.8l1.8-1.8C788.8,566.3,788.9,566.8,788.9,567z"/>
<circle class="st13" cx="758" cy="419.8" r="8.8"/>
<path class="st13" d="M750.9,437.5c-1.9,1.8-2.3,4.8-2.5,7.5l-0.3,3.9c-0.1,1.1-0.1,2.1-0.1,3.2c0,0.7,0.2,1.3,0.2,2
	s0.1,1.6,0.1,2.3v5.8c-0.1,1.2,0.1,2.4,0.6,3.5c0.6,1.1,1.9,1.6,3,1.1c0.6-0.5,1.1-1.2,1.2-1.9c1-2.3,1.6-4.8,2-7.3
	c0.1-0.9,0.1-1.7,0.2-2.6s0.2-1.8,0.4-2.7c0.6-3.7,0.8-7.4,1.1-11.1c0.1-1.1,1.1-5.4-0.4-5.9c-0.7-0.2-2.2,0.5-2.8,0.7
	C752.6,436.3,751.7,436.8,750.9,437.5z"/>
<path class="st5" d="M750.9,437.5c-1.9,1.8-2.3,4.8-2.5,7.5l-0.3,3.9c-0.1,1.1-0.1,2.1-0.1,3.2c0,0.7,0.2,1.3,0.2,2s0.1,1.6,0.1,2.3
	v5.8c-0.1,1.2,0.1,2.4,0.6,3.5c0.6,1.1,1.9,1.6,3,1.1c0.6-0.5,1.1-1.2,1.2-1.9c1-2.3,1.6-4.8,2-7.3c0.1-0.9,0.1-1.7,0.2-2.6
	s0.2-1.8,0.4-2.7c0.6-3.7,0.8-7.4,1.1-11.1c0.1-1.1,1.1-5.4-0.4-5.9c-0.7-0.2-2.2,0.5-2.8,0.7C752.6,436.3,751.7,436.8,750.9,437.5z
	"/>
<path class="st14" d="M769.2,425.5c0,0-6.7,5.1-10.6,6.3c0,0-2.3,2.7-2.7,3.3s-1.2,7.7-2,9.3s-2.8,5.1,0,8.6c0,0,0.8,3.5,0.4,4.7
	s-1.8,5.5-0.5,5.7s5.2,2.9,8.8,2.2s16.7,3,16.7,3s2.2-20.2,3.8-23.8l-3.5-1.2c0,0-9.8-5.9-3.9-14.9
	C775.5,428.7,770,427.5,769.2,425.5z"/>
<path class="st3" d="M744.8,449.2l8.1,5.8c0.2,0.2,0.5,0.2,0.7,0l2.2-1.7c0.3-0.2,0.3-0.6,0.1-0.9c0,0,0,0-0.1-0.1l-6.3-5.5
	c-0.2-0.2-0.4-0.2-0.6-0.1l-4,1.4c-0.3,0.1-0.5,0.5-0.4,0.8C744.7,449,744.7,449.1,744.8,449.2z"/>
<path class="st13" d="M747.6,466.5c-0.6-2-0.9-4.1-0.8-6.1l-0.1-2.8c-0.1-1.1,0-2.2,0.3-3.2c0.6-1.4,1.9-2.5,3.4-3
	c1.5-0.4,3.1-0.5,4.6-0.3c0.2,0,0.4,0.1,0.6,0.2c0.2,0.1,0.3,0.3,0.3,0.5c0.5,0.9,0.5,1.9,0.2,2.9c-0.2,0.4-0.5,0.7-0.9,1
	c-1.1,0.8-2.4,1.3-3.4,2.2c-0.2,0.1-0.4,0.3-0.5,0.6c0,0.2,0,0.4,0,0.6c0.1,0.6,0.3,1.1,0.5,1.6c0.1,0.3,0.2,0.5,0.5,0.7
	c0.2,0.2,0.4,0.2,0.6,0.4c0.4,0.3,1.3,0.8,1.3,1.4c-0.2,2-1.3,4.2-1.8,6.2C751.3,473.2,748.2,468.2,747.6,466.5z"/>
<g class="st15">
	<path d="M760.2,465.6H760c0.8,0.2,1.7,0.2,2.6,0h0.3C761.9,465.5,761.1,465.5,760.2,465.6z"/>
	<path d="M780.8,444.2c-1.4,3.2-3.5,20.3-3.9,23.8c1.4,0.4,2.3,0.6,2.3,0.6s2.2-20.2,3.7-23.8L780.8,444.2z"/>
</g>
<path class="st13" d="M776.4,439c0.1,0.8,0.6,1.5,1.3,2c0.8,0.7,1.6,1.5,2.3,2.3c1,1.4,1.8,2.9,2.3,4.5c0.8,2,1.4,4.1,1.9,6.2
	c-5,2.3-10.7,2.2-16,3.7c-2.3,0.6-4.4,1.8-6,3.5c-1.6,1.7-2.5,4.1-2.2,6.5c0,0.1,0,0.3,0.1,0.4c0.2,0.2,0.4,0.3,0.7,0.3
	c1.3,0,2.6-0.4,3.7-1.3c1-0.8,2-1.7,2.8-2.8c0.5-0.7,1.2-1.2,2-1.5c2.9-0.9,6-0.8,9-0.9c4.5-0.1,9-0.4,13.4-1.1
	c0.6,0.1,1.1-0.4,1.2-0.9c0-0.1,0-0.2,0-0.3c0.4-5.9-1.8-11.7-4-17.1c-0.9-2.2-1.8-4.4-2.8-6.5c-0.8-2.1-1.9-4.1-3.4-5.8
	c-0.6-0.6-1.2-1.1-2-1.5c-0.9-0.3-1.8-0.5-2.7-0.5c-1.5-0.2-2.9-0.2-4.4-0.1c-0.2,0.7-0.4,1.5-0.4,2.3c0.1,2.7,1.3,5.2,2.4,7.7
	C775.8,438.6,776.2,438.6,776.4,439z"/>
<path class="st18" d="M760.4,444c-0.7,1.2-1,2.5-1,3.8c0,0.5,0.1,1.1,0.3,1.6c0.6,1.4,1.7,2.5,3.2,3"/>
<path class="st3" d="M765.5,411.2c-0.5,0-1,0.1-1.5,0.2c-1.3-2-4.4-3.4-8-3.4c-4.8,0-8.7,2.5-8.7,5.5s3.9,5.5,8.7,5.5
	c1.8,0,3.6-0.4,5.2-1.1c1.1,2.3,3.9,3.3,6.3,2.2c2.3-1.1,3.3-3.9,2.2-6.3C768.9,412.2,767.3,411.2,765.5,411.2L765.5,411.2z"/>
<path class="st5" d="M765.9,419.4c-1.8,0-3.5-1-4.2-2.7c-1.6,0.7-3.4,1.1-5.2,1.1c-4.8,0-8.6-2.5-8.6-5.5c0-0.2,0-0.4,0-0.5
	c-0.3,0.5-0.4,1.1-0.4,1.7c0,3,3.9,5.5,8.7,5.5c1.8,0,3.6-0.4,5.2-1.1c1.1,2.3,3.9,3.3,6.3,2.2c1.3-0.6,2.3-1.9,2.6-3.4
	C769.3,418.4,767.7,419.4,765.9,419.4z"/>
<path class="st5" d="M746.2,411.4c2.7-5.6,8.9-8.5,15-7.2c6.6-4.1,15.4-2,19.5,4.6c1.2,1.9,1.9,4,2.1,6.3c0-0.4,0-0.8,0-1.2
	c0-7.8-6.4-14.1-14.2-14.1c-2.6,0-5.2,0.7-7.4,2.1c-6.1-1.4-12.3,1.6-15,7.2c-3.3,3.2-5.2,7.6-5.1,12.2c0,0.4,0,0.8,0,1.2
	C741.3,418.2,743.1,414.2,746.2,411.4z"/>
<path class="st10" d="M836.4,414.4c2.6-4.8-0.3-10.8-3.8-15.1s-7.5-8.8-7.5-14.3c0.1-7.9,8.5-12.5,15.2-16.7c5-3.1,9.5-6.8,13.6-11
	c1.7-1.6,3.1-3.5,4.2-5.6c1.4-3.1,1.3-6.6,1.3-10c-0.3-11.3-0.8-22.5-1.7-33.8"/>
<path class="st4" d="M870.5,307.3c-0.2-4.2-2.5-8-6.1-10.1l-2.8,5.5l0.1-6.6c-1.3-0.4-2.7-0.6-4-0.5c-6.8,0.3-12,6.1-11.7,12.9
	c0.3,6.8,6.1,12,12.9,11.7C865.6,319.9,870.8,314.1,870.5,307.3C870.5,307.3,870.5,307.3,870.5,307.3L870.5,307.3z"/>
<path class="st4" d="M848.6,390.6c-3.1,6-10.5,8.4-16.6,5.3s-8.4-10.5-5.3-16.6c3.1-6,10.5-8.4,16.6-5.3c2.7,1.4,4.8,3.8,5.9,6.7
	l-7.7,6.3l8.5-2C849.9,386.9,849.5,388.9,848.6,390.6z"/>
<path class="st4" d="M842.5,366.7c-6.8,0.3-12.6-4.9-12.9-11.7c-0.3-5.7,3.4-10.9,9-12.4l-0.1,5.1l2.8-5.5l0,0
	c6.8-0.3,12.6,4.9,12.9,11.7C854.5,360.6,849.3,366.4,842.5,366.7C842.5,366.7,842.5,366.7,842.5,366.7L842.5,366.7z"/>
<path class="st4" d="M872.4,346.8c-6.8,0.3-12.6-4.9-12.9-11.7s4.9-12.6,11.7-12.9c2.3-0.1,4.7,0.4,6.7,1.6l-2.2,6l4.5-4.3
	c2.4,2.2,3.9,5.2,4,8.5c0.1,1.1,0,2.3-0.3,3.4C882.5,342.8,877.9,346.6,872.4,346.8z"/>
<path class="st5" d="M868.9,310.6c-2.8,0.3-5.6,1.2-8.5,1.4s-6-0.5-7.8-2.7c-0.8-1.3-1.6-2.6-2.3-4c-0.8-1.2-1.8-2.2-3.1-2.9
	c-3.1,6.1-0.7,13.5,5.4,16.6c6.1,3.1,13.5,0.7,16.6-5.4c0.5-1,0.9-2,1.1-3C869.8,310.5,869.3,310.5,868.9,310.6z"/>
<path class="st5" d="M872.4,346.8c-6.8,0.3-12.6-4.9-12.9-11.7c-0.1-2,0.3-4,1.2-5.8c1,0.7,1.8,1.5,2.5,2.5c0.7,1.4,1.5,2.8,2.4,4.1
	c1.9,2.3,5.2,3,8.2,2.9s5.8-1,8.8-1.3c0.4,0,0.8-0.1,1.2-0.1C882.5,342.7,877.9,346.6,872.4,346.8z"/>
<path class="st5" d="M842.5,366.7c-6.8,0.3-12.6-4.9-12.9-11.7c-0.1-1.9,0.3-3.9,1.1-5.7c1,0.7,1.9,1.5,2.6,2.5
	c1,1.3,1.5,2.9,2.7,4.2c2.1,2.3,5.6,3.1,8.7,3.1s6-0.8,9-1C852.1,363,847.7,366.5,842.5,366.7z"/>
<path class="st5" d="M848.6,390.6c-3.2,6-10.7,8.3-16.7,5.1c-5.4-2.9-7.9-9.3-5.8-15.1c1,0.7,1.9,1.5,2.7,2.4c1.2,1.4,2,3,3.3,4.4
	c2.5,2.5,6.6,3.5,10.2,3.6C844.4,391,846.5,390.9,848.6,390.6z"/>
<path class="st10" d="M995.4,566.4c2.6-4.8-0.3-10.8-3.8-15.1s-7.6-8.8-7.5-14.3c0.1-7.9,8.5-12.5,15.2-16.7c5-3.1,9.5-6.8,13.6-11
	c1.7-1.6,3.1-3.5,4.2-5.6c1.4-3.1,1.3-6.6,1.3-10c-0.3-11.3-0.8-22.5-1.7-33.8"/>
<path class="st4" d="M1029.5,459.3c-0.2-4.2-2.5-8-6.1-10.1l-2.8,5.5l0.1-6.6c-1.3-0.4-2.6-0.6-4-0.5c-6.8,0.3-12,6.1-11.7,12.9
	c0.3,6.8,6.1,12,12.9,11.7C1024.6,471.9,1029.9,466.1,1029.5,459.3C1029.6,459.3,1029.6,459.3,1029.5,459.3L1029.5,459.3z"/>
<path class="st4" d="M1007.6,542.6c-3.1,6-10.5,8.4-16.6,5.3c-6-3.1-8.4-10.5-5.3-16.6s10.5-8.4,16.6-5.3c2.7,1.4,4.8,3.8,5.9,6.7
	l-7.7,6.3l8.5-2C1008.9,538.9,1008.5,540.9,1007.6,542.6z"/>
<path class="st4" d="M1001.5,518.7c-6.8,0.3-12.6-4.9-12.9-11.7c-0.3-5.7,3.4-10.9,9-12.4l-0.1,5.1l2.8-5.5l0,0
	c6.8-0.3,12.6,4.9,12.9,11.7C1013.5,512.6,1008.3,518.4,1001.5,518.7C1001.5,518.7,1001.5,518.7,1001.5,518.7L1001.5,518.7z"/>
<path class="st4" d="M1031.4,498.8c-6.8,0.3-12.6-4.9-12.9-11.7c-0.3-6.8,4.9-12.6,11.7-12.9c2.3-0.1,4.7,0.4,6.7,1.6l-2.2,6
	l4.5-4.3c2.4,2.2,3.9,5.2,4,8.5c0.1,1.1,0,2.3-0.3,3.4C1041.5,494.8,1036.9,498.6,1031.4,498.8z"/>
<path class="st5" d="M1027.9,462.6c-2.8,0.3-5.6,1.2-8.5,1.4s-6-0.5-7.8-2.7c-0.8-1.3-1.6-2.6-2.3-4c-0.8-1.2-1.8-2.2-3.1-2.9
	c-3.1,6.1-0.7,13.5,5.4,16.6c6.1,3.1,13.5,0.7,16.6-5.4c0.5-1,0.9-2,1.1-3C1028.8,462.5,1028.3,462.5,1027.9,462.6z"/>
<path class="st5" d="M1031.4,498.8c-6.8,0.3-12.6-4.9-12.9-11.7c-0.1-2,0.3-4,1.2-5.8c1,0.7,1.8,1.5,2.5,2.5
	c0.7,1.4,1.5,2.8,2.4,4.1c1.9,2.3,5.2,3,8.2,2.9s5.8-1,8.8-1.3c0.4,0,0.8-0.1,1.2-0.1C1041.5,494.7,1036.9,498.6,1031.4,498.8z"/>
<path class="st5" d="M1001.5,518.7c-6.8,0.3-12.6-4.9-12.9-11.7c-0.1-1.9,0.3-3.9,1.1-5.7c1,0.7,1.9,1.5,2.6,2.5
	c1,1.3,1.6,2.9,2.7,4.2c2.1,2.3,5.6,3.1,8.7,3.1s6-0.8,9-1C1011.1,515,1006.7,518.5,1001.5,518.7z"/>
<path class="st5" d="M1007.6,542.6c-3.2,6-10.7,8.3-16.7,5.1c-5.4-2.9-7.9-9.3-5.8-15.1c1,0.7,1.9,1.5,2.7,2.4c1.2,1.4,2,3,3.3,4.4
	c2.5,2.5,6.6,3.5,10.2,3.6C1003.4,543,1005.5,542.9,1007.6,542.6z"/>
<linearGradient id="SVGID_4_" gradientUnits="userSpaceOnUse" x1="462.9624" y1="-84.6928" x2="462.9624" y2="16.2972" gradientTransform="matrix(1 0 0 -1 -52 413.37)">
	<stop  offset="0" style="stop-color:#808080;stop-opacity:0.25"/>
	<stop  offset="0.54" style="stop-color:#808080;stop-opacity:0.12"/>
	<stop  offset="1" style="stop-color:#808080;stop-opacity:0.1"/>
</linearGradient>
<path class="st19" d="M478,425.3c0-3.1-1.4-6-3.9-7.9c0-5.6-4.1-10.4-9.6-11.3c-0.8-4-3.8-7.3-7.6-8.5l0,0c-0.5-0.1-0.9-0.3-1.4-0.3
	h-0.1H455h-0.2h-0.2h-0.3h-0.6c-5.5,0.1-10.1,4.2-10.9,9.6c-3.5-0.8-6.7,0.2-7.3,2.5c-0.1,0.6-0.1,1.2,0.1,1.8
	c0.6,1.7,2.5,3.4,5.2,4.2l0.3,0.1l0.5,0.1h0.1l0,0c-0.6,1.2-0.8,2.5-0.8,3.8c0,3.3,1.8,6.3,4.7,7.8l-0.2,0.1
	c-0.3,0.3-0.6,0.7-0.8,1.1c-0.6,1.1-1.1,2.3-1.5,3.5c-0.3,1.1-0.3,2.2-0.6,3.2c-0.6,1.9-2.1,3.6-2.2,5.6c-0.1,0.9,0.1,2-0.6,2.6
	c-0.2,0.1-0.3,0.3-0.5,0.4c-0.4,0.3-0.8,0.7-1.1,1.2c-0.2,0.4-0.5,0.8-0.8,1.1c-0.6,0.4-1.5,0.4-1.8,1.1s0.5,1.5,0.3,2.2
	s-0.8,0.9-1.2,1.3c-0.5,0.6-0.9,1.3-1.1,2c-1.9,0.4-3.9-0.1-5.4-1.4c0.3,0.6,0.4,1.3,0.6,2c-0.9-0.7-1.9-1.2-2.9-1.5
	c-1.2-0.5-2.2-1.3-3.1-2.3l1.7-0.2l-7.3-11.2l-2.2-0.5l1.9,3.7c-0.3,0.1-0.6,0.4-0.7,0.8c-0.1,0.4-0.1,0.8-0.1,1.3
	c0.1,1,0.3,2,0.5,3l0.6,2.6c0,0.2,0.1,0.5,0.2,0.7c-0.7,0-1.5,0-2.2,0.2c-1.5-0.5-3-0.9-4.5-1.1c-0.3-0.1-0.7-0.1-1,0
	c-0.4,0.2-0.7,0.4-1,0.8c-1.3,1.5-2.4,3-3.4,4.7c-4,6.9-9.2,12.8-14.1,19c-3.4,1.4-6.8,2.7-10.3,4l-7.4,2.8c-1.4,0.7-3,1-4.6,1
	c-0.7,0-1.6-0.2-2,0.5c-0.2,0.3-0.3,0.6-0.5,1l-0.8,0.1l0,0c-0.3-1.2-1-2.3-1.8-3.3c-0.4,0.1-0.7,0.3-0.8,0.6
	c-0.2,0.3-0.3,0.7-0.5,1c-0.4,0.6-1.1,0.9-1.6,1.3s-0.8,1.3-1.3,1.8c-0.7,0.5-1.6,0.9-2.5,1c-1.4,0.3-2.7,0.8-3.9,1.5
	c-0.5,0.3-0.9,0.5-1.5,0.7c-0.6,0.1-1.1,0.1-1.7,0.1l-3.9-0.3c-0.4,0-0.7,0-1,0c-0.8,0.3-1.3,1.1-1.2,2c0.1,0.9,0.5,1.6,1.2,2.2
	c0.7,0.5,1.4,0.9,2.2,1.2c3.4,1.3,6.9,2.3,10.4,3.1v0.8c2.5,1.3,5.2,1.9,8,1.9c0.2,0,0.4,0,0.6-0.1c0.3-0.2,0.4-0.5,0.5-0.8
	c0.8-2.5,1.4-5.1,1.6-7.7l0,0c0.5,0,1-0.2,1.4-0.4c1.3-0.4,2.7,0.5,4.1,0.7c1.7,0.2,3.3-0.8,4.9-1.4l0.7-0.2c-0.5,0.6-1,1.1-1.6,1.5
	c-0.7,0.5-1.4,0.8-2.1,1.3c-0.6,0.5-1.1,1-1.8,1.4c-0.4,0.2-0.9,0.4-1.4,0.5c-0.7,0.3-1.3,0.6-1.9,1c-0.5,0.3-1,0.8-1.3,1.3
	c-0.3,0.5-0.4,1.2-0.1,1.8c0.3,0.5,0.8,0.8,1.3,0.9c0.5,0.1,1.1,0.1,1.6,0c2.1-0.2,4.2-0.3,6.3-0.5c0.9-0.1,1.8-0.2,2.6-0.4
	c0.5-0.1,0.9-0.3,1.4-0.4c0.8-0.2,1.6-0.3,2.4-0.4c0.2,0,0.5,0,0.7,0.1c0.5,0.2,0.8,0.7,1.3,0.8c0.3,0,0.7,0,1-0.1
	c1.5-0.3,3.1-0.5,4.7-0.5c0.7,0,1.5-0.2,1.8-0.8s-0.3-1.7-0.5-2.5c-0.1-0.5-0.2-1.1-0.2-1.7c-0.1-1.4-0.5-2.7-1.2-3.9
	c-0.3-0.6-0.6-1.2-0.9-1.8c3-1.1,5.9-2.6,8.6-4.4c1.5-1.1,3.2-1.9,4.9-2.4c2.1-0.2,4.2,0,6.2,0.7c4.8,1.4,9.5,3,14.2,4.9
	c2.2,0.9,4.4,1.9,6.7,2.6c0.7,0.9,1.5,1.7,2.4,2.3c1.6,0.9,3.3,1.4,5.1,1.4c2.4,0.2,4.8,0.3,7.3,0.3c1.9,0.1,3.7-0.3,5.4-1
	c0.4-0.2,0.8-0.5,1.1-0.8c1.3,0.1,2.6-0.4,3.6-1.3c1.3-1.1,2.3-2.6,2.7-4.3c0.6-2.3,0.1-5,1.5-6.8c0.4-0.5,0.9-0.9,1.2-1.4
	c0.4-0.7,0.7-1.5,0.6-2.3c0,0,0-0.1,0.1-0.1c0.3-0.7,0.5-1.5,0.6-2.3c0.2-0.6,0.4-1.2,0.7-1.8c0.7-1.8,1.3-3.6,1.9-5.4
	c0.4-1.2,0.6-2.5,0.9-3.7c0.2-1,0.2-2,0.3-3c0.1-1.6,0.4-3.1,0.9-4.6c1.3-3.6,2-7.3,2.1-11.1v-0.2c3.8-0.4,6.7-3.7,6.6-7.6
	c0-1.1-0.2-2.2-0.7-3.2C477.5,428.8,478,427,478,425.3z M442.2,468.8c0.1,0.4,0.2,0.8,0.4,1.2c-0.6-0.6-1.2-1.2-1.8-1.7
	c0.2,0.1,0.5,0.2,0.7,0.2C441.8,468.5,442,468.6,442.2,468.8L442.2,468.8z M439.4,466.8c-3.5-3-7.5-5.3-11-8.2
	c1.9,1,3.8,2.1,5.7,3.1c2.2,1.3,4.4,2.5,6.7,3.6C440.4,465.9,439.9,466.4,439.4,466.8L439.4,466.8z M440.9,459.3l0.2-0.2
	c0,0.4,0,0.8,0,1.2l-0.9-0.3C440.4,459.8,440.6,459.5,440.9,459.3L440.9,459.3z M410.4,467.4c1.4-1.6,2.7-3.4,3.7-5.3
	c1.4,2.4,3.6,4.1,5.5,6.1C416.5,467.9,413.5,467.5,410.4,467.4z"/>
<polygon class="st20" points="415.4,438.3 417.5,438.7 425,449.7 421.7,450.1 "/>
<path class="st21" d="M362.5,482.8c0.6,1.9,1.3,3.8,2.2,5.7c2.5-0.5,4.9-1.2,7.3-2.1c-0.5-0.7-1-1.4-1.5-2c-0.6-0.6-1.3-1.2-2-1.6
	c-0.8-0.2-1.7-0.2-2.5,0C364.8,482.8,363.6,482.8,362.5,482.8z"/>
<path class="st20" d="M368.4,485.8c-1.2-0.5-2.1-1.6-2.5-2.8c-0.4-1.2-1-2.4-1.9-3.4c-0.4,0.1-0.7,0.3-0.8,0.6
	c-0.2,0.3-0.3,0.7-0.5,1c-0.4,0.6-1.1,0.8-1.6,1.3s-0.8,1.2-1.3,1.7c-0.7,0.5-1.6,0.9-2.5,1c-1.4,0.3-2.7,0.8-4,1.5
	c-0.5,0.3-1,0.5-1.5,0.7c-0.6,0.1-1.1,0.1-1.7,0l-3.9-0.3c-0.3-0.1-0.7-0.1-1,0c-0.8,0.3-1.3,1.1-1.3,2c0.1,0.9,0.5,1.6,1.3,2.1
	c0.7,0.5,1.4,0.9,2.2,1.1c3.4,1.3,7,2.3,10.6,3v0.8c2.5,1.2,5.3,1.9,8,1.9c0.2,0,0.4,0,0.6-0.1c0.3-0.2,0.4-0.5,0.5-0.8
	c0.9-2.8,1.5-5.6,1.6-8.6c0.1-0.7,0-1.5-0.2-2.2C368.3,485.6,369,485.9,368.4,485.8"/>
<path class="st20" d="M443.9,470.9c-11.7,0.7-23.2-2.7-34.9-3.1c-1.5-0.1-2.9,0-4.3,0.3c-1.5,0.4-2.9,1-4.3,1.7
	c-6.3,2.9-12.8,5.3-19.2,7.8l-7.5,2.8c-1.4,0.7-3,1-4.6,1c-0.7,0-1.6-0.2-2,0.4c-1.2,1.8-0.6,4.4,0.2,6.5c0.3,0.7,0.7,1.4,1.4,1.4
	c0.5,0,1-0.2,1.4-0.4c1.4-0.4,2.7,0.5,4.1,0.7c1.7,0.2,3.3-0.8,5-1.4c2.7-1,5.6-1,8.5-1.4c4.8-0.8,9.2-3,13.3-5.5
	c1.5-1.1,3.2-1.9,5-2.3c2.1-0.2,4.2,0,6.2,0.7c4.8,1.4,9.6,3,14.3,4.9c2.4,1.1,4.9,2,7.5,2.7c5.5,1.4,11.4,1.1,16.7-1
	c1.9-0.7,3.9-2,4-4.1c0.1-1.2-0.8-2.2-1.4-3.2c-0.4-0.6-0.8-1.3-1.2-1.9C449.9,474.6,447.5,470.7,443.9,470.9z"/>
<path class="st5" d="M443.9,470.9c-11.7,0.7-23.2-2.7-34.9-3.1c-1.5-0.1-2.9,0-4.3,0.3c-1.5,0.4-2.9,1-4.3,1.7
	c-6.3,2.9-12.8,5.3-19.2,7.8l-7.5,2.8c-1.4,0.7-3,1-4.6,1c-0.7,0-1.6-0.2-2,0.4c-1.2,1.8-0.6,4.4,0.2,6.5c0.3,0.7,0.7,1.4,1.4,1.4
	c0.5,0,1-0.2,1.4-0.4c1.4-0.4,2.7,0.5,4.1,0.7c1.7,0.2,3.3-0.8,5-1.4c2.7-1,5.6-1,8.5-1.4c4.8-0.8,9.2-3,13.3-5.5
	c1.5-1.1,3.2-1.9,5-2.3c2.1-0.2,4.2,0,6.2,0.7c4.8,1.4,9.6,3,14.3,4.9c2.4,1.1,4.9,2,7.5,2.7c5.5,1.4,11.4,1.1,16.7-1
	c1.9-0.7,3.9-2,4-4.1c0.1-1.2-0.8-2.2-1.4-3.2c-0.4-0.6-0.8-1.3-1.2-1.9C449.9,474.6,447.5,470.7,443.9,470.9z"/>
<path class="st21" d="M384.9,483.4c1.8,0.6,3.7,1.2,5.5,1.7c1-1.7,3-2.9,3.4-4.9c0-0.1,0-0.2,0-0.3c0-0.1-0.1-0.1-0.2-0.2
	c-1.3-0.7-2.8-1.2-4.3-1.3c-1.2-0.1-1.8,1.2-2.3,2.1C386.8,481,385.4,483.6,384.9,483.4z"/>
<path class="st20" d="M387.5,482.2c-1.1-0.2-2.1-0.8-2.7-1.8c-0.3-0.5-0.5-1.1-1-1s-0.7,0.6-0.8,1.1c-0.3,1.8-0.9,3.5-1.5,5.2
	c-0.7,1.7-1.8,3.2-3.2,4.3c-0.7,0.5-1.4,0.8-2.1,1.3c-0.6,0.5-1.1,0.9-1.8,1.3c-0.4,0.2-0.9,0.4-1.4,0.5c-0.7,0.3-1.3,0.6-1.9,1
	c-0.5,0.3-1,0.7-1.3,1.3c-0.3,0.5-0.4,1.2-0.1,1.8c0.3,0.5,0.8,0.8,1.3,0.9c0.5,0.1,1.1,0.1,1.6,0c2.1-0.2,4.3-0.3,6.4-0.5
	c0.9-0.1,1.8-0.2,2.7-0.4l1.4-0.4c0.8-0.2,1.6-0.3,2.4-0.4c0.2,0,0.5,0,0.7,0.1c0.5,0.2,0.8,0.7,1.4,0.8c0.3,0,0.7,0,1-0.1
	c1.6-0.3,3.1-0.5,4.7-0.5c0.7,0,1.5-0.2,1.8-0.8c0.4-0.8-0.3-1.7-0.5-2.5c-0.1-0.5-0.2-1.1-0.2-1.6c-0.1-1.4-0.5-2.7-1.2-3.9
	c-0.5-1-1.3-2.1-0.9-3.2c0.2-0.3,0.3-0.7,0.4-1.1C392.4,481.8,388.5,482.4,387.5,482.2z"/>
<path class="st21" d="M426.4,452.2c-2.1-0.9-3.7-2.6-4.7-4.6c-0.2-0.4-0.4-0.9-0.5-1.3c-0.6-1.5-1.6-2.8-2.8-3.9
	c-0.3-0.3-0.6-0.4-1-0.4c-0.4,0.1-0.7,0.4-0.8,0.8c-0.1,0.4-0.1,0.8-0.1,1.3c0.1,1,0.3,2,0.5,2.9l0.6,2.6c0.1,0.4,0.2,0.8,0.4,1.2
	c0.2,0.4,0.6,0.8,1,1.1c0.5,0.5,1,0.9,1.6,1.4c0.3,0.3,0.6,0.5,1,0.7c0.6,0.3,1.2,0.4,1.8,0.5c2.4,0.3,4.7,1.2,6.6,2.6
	c0,0,0-1.7,0-1.9c0-0.5-0.2-1-0.5-1.4C428.6,452.9,427.5,452.4,426.4,452.2z"/>
<path class="st5" d="M426.4,452.2c-2.1-0.9-3.7-2.6-4.7-4.6c-0.2-0.4-0.4-0.9-0.5-1.3c-0.6-1.5-1.6-2.8-2.8-3.9
	c-0.3-0.3-0.6-0.4-1-0.4c-0.4,0.1-0.7,0.4-0.8,0.8c-0.1,0.4-0.1,0.8-0.1,1.3c0.1,1,0.3,2,0.5,2.9l0.6,2.6c0.1,0.4,0.2,0.8,0.4,1.2
	c0.2,0.4,0.6,0.8,1,1.1c0.5,0.5,1,0.9,1.6,1.4c0.3,0.3,0.6,0.5,1,0.7c0.6,0.3,1.2,0.4,1.8,0.5c2.4,0.3,4.7,1.2,6.6,2.6
	c0,0,0-1.7,0-1.9c0-0.5-0.2-1-0.5-1.4C428.6,452.9,427.5,452.4,426.4,452.2z"/>
<ellipse class="st20" cx="450.2" cy="429.6" rx="2.8" ry="2.9"/>
<path class="st20" d="M448.4,427.8c-0.8-0.2-1.6-0.1-2.2,0.3c-0.3,0.3-0.6,0.6-0.8,1c-0.6,1.1-1.1,2.3-1.5,3.5
	c-0.3,1-0.3,2.1-0.6,3.2c-0.6,1.9-2.1,3.5-2.2,5.5c-0.1,0.9,0.1,1.9-0.6,2.5c-0.2,0.1-0.3,0.3-0.5,0.4c-0.5,0.3-0.8,0.7-1.1,1.2
	c-0.2,0.4-0.5,0.8-0.8,1.1c-0.6,0.4-1.5,0.4-1.8,1s0.5,1.4,0.3,2.2s-0.8,0.9-1.3,1.3c-0.5,0.6-0.9,1.2-1.1,2
	c-1.9,0.4-3.9-0.1-5.4-1.3c0.7,2,0.9,4.1,0.9,6.2c0.1,0.7-0.1,1.4-0.5,1.9c2.3,0.2,4.5,0.6,6.7,1.2c0.9,0.3,2,0.3,2.9,0
	c0.5-0.3,1-0.6,1.3-1.1c1.2-1.2,2.5-2.5,2.8-4.2c0.1-1,0.1-1.9,0-2.9c0.1-1.2,0.4-2.4,0.7-3.5c0.6-2.4,1.1-4.8,1.3-7.2
	c0.1-1.5,1.4-2.7,2.1-4c1.3-2.5,2.6-5.2,2.7-8C449.7,429.1,449.4,428,448.4,427.8z"/>
<path class="st5" d="M448.4,427.8c-0.8-0.2-1.6-0.1-2.2,0.3c-0.3,0.3-0.6,0.6-0.8,1c-0.6,1.1-1.1,2.3-1.5,3.5
	c-0.3,1-0.3,2.1-0.6,3.2c-0.6,1.9-2.1,3.5-2.2,5.5c-0.1,0.9,0.1,1.9-0.6,2.5c-0.2,0.1-0.3,0.3-0.5,0.4c-0.5,0.3-0.8,0.7-1.1,1.2
	c-0.2,0.4-0.5,0.8-0.8,1.1c-0.6,0.4-1.5,0.4-1.8,1s0.5,1.4,0.3,2.2s-0.8,0.9-1.3,1.3c-0.5,0.6-0.9,1.2-1.1,2
	c-1.9,0.4-3.9-0.1-5.4-1.3c0.7,2,0.9,4.1,0.9,6.2c0.1,0.7-0.1,1.4-0.5,1.9c2.3,0.2,4.5,0.6,6.7,1.2c0.9,0.3,2,0.3,2.9,0
	c0.5-0.3,1-0.6,1.3-1.1c1.2-1.2,2.5-2.5,2.8-4.2c0.1-1,0.1-1.9,0-2.9c0.1-1.2,0.4-2.4,0.7-3.5c0.6-2.4,1.1-4.8,1.3-7.2
	c0.1-1.5,1.4-2.7,2.1-4c1.3-2.5,2.6-5.2,2.7-8C449.7,429.1,449.4,428,448.4,427.8z"/>
<path class="st20" d="M445.8,473.4c-2.4-1.2-4.2-3.3-6.2-5.2c-3.8-3.5-8.3-6-12.3-9.3c-2.6-2.2-5-4.7-7.8-6.6
	c-2.5-1.6-5.4-2.6-8.4-2.9c-0.3-0.1-0.7-0.1-1,0c-0.4,0.2-0.7,0.4-1,0.8c-1.3,1.4-2.4,3-3.4,4.7c-5,8.5-12.1,15.6-18,23.5
	c-0.1,0.2-0.2,0.4-0.3,0.6c0,0.3,0.1,0.6,0.2,0.9l1.2,2.3c0.7,1.3,1.8,2.8,3.2,2.6c0.6-0.2,1.2-0.6,1.7-1.1l5.4-5.2l5.6-5.4
	c3.3-3.2,6.7-6.4,8.8-10.4c1.7,2.9,4.7,4.8,6.7,7.5c0.8,1,1.4,2.1,2.1,3.2c1.1,1.7,2.4,3.3,3.6,5l6.5,8.3c0.8,1.2,1.8,2.2,3,3
	c1.6,0.9,3.4,1.3,5.2,1.4c2.4,0.2,4.9,0.3,7.3,0.3c1.9,0.1,3.7-0.3,5.5-1c1.7-0.8,2.9-2.5,3-4.4c-0.1-1-0.4-1.9-0.9-2.7
	C453.1,479,450.1,475.4,445.8,473.4z"/>
<ellipse class="st22" cx="452" cy="431.5" rx="2.2" ry="2.2"/>
<path class="st21" d="M451.5,429.9c0.5,1,0.6,2.1,0.2,3.2c-0.3,1-0.8,2-1.4,2.9c-0.5,0.9-1.1,1.8-1.8,2.6c3.4,0.2,6.6-1.2,9.6-2.8
	c2.4-1.3,4.8-2.9,6.1-5.3c-0.8,0.2-1.6,0-2.2-0.4c-0.6-0.4-1.2-1-1.7-1.6l-1.7-1.9c-0.4-0.4-0.7-0.9-1-1.4c-0.4-0.7-0.5-1.4-0.5-2.2
	c-0.7,0.7-1.4,1.3-2.2,1.9c-1.2,0.8-2.5,1.4-3.8,2.1c-0.4,0.3-1.4,0.7-1.1,1.3S451.1,429.3,451.5,429.9z"/>
<path class="st5" d="M451.5,429.9c0.5,1,0.6,2.1,0.2,3.2c-0.3,1-0.8,2-1.4,2.9c-0.5,0.9-1.1,1.8-1.8,2.6c3.4,0.2,6.6-1.2,9.6-2.8
	c2.4-1.3,4.8-2.9,6.1-5.3c-0.8,0.2-1.6,0-2.2-0.4c-0.6-0.4-1.2-1-1.7-1.6l-1.7-1.9c-0.4-0.4-0.7-0.9-1-1.4c-0.4-0.7-0.5-1.4-0.5-2.2
	c-0.7,0.7-1.4,1.3-2.2,1.9c-1.2,0.8-2.5,1.4-3.8,2.1c-0.4,0.3-1.4,0.7-1.1,1.3S451.1,429.3,451.5,429.9z"/>
<path class="st22" d="M451.5,430.2c-0.7,1-0.7,2.3,0,3.3c0.1,0.1,0.5,0.9,0.6,0.9c0.1,0,0.3-0.1,0.4-0.2c0.8-0.8,1.5-1.7,2.1-2.5
	c0.7-0.9,1.6-1.5,2.7-1.8c1.3-0.1,2.7,0.4,3.7,1.2c0.5,0.2,0.9,0.6,1.3,1c0.2,0.4,0.4,0.9,0.4,1.4c0.3,3,0.5,6.1,0.4,9.1
	c0.1,2.2-0.1,4.4-0.4,6.5c-0.2,1.1-0.5,2.2-0.7,3.3c-0.1,1-0.2,2-0.1,3v4.2c0,0.8,0,1.5,0.2,2.3c0.2,0.9,0.6,1.8,0.9,2.7
	c0.3,1,0.5,2.1,0.6,3.1l0.6,4.3c0.2,1.4,0.3,2.8-0.5,4c-0.4,0.5-0.9,0.9-1.2,1.4c-1.4,1.8-1,4.5-1.5,6.7c-0.5,1.6-1.4,3.1-2.7,4.2
	c-1,0.9-2.3,1.4-3.6,1.3c-1.8-0.3-2.8-2.2-3.3-3.9s-0.6-3.6-1.7-5.1c-1-1.1-2.1-2-3.3-2.8c-1.3-0.8-2.2-2-2.6-3.4
	c-0.1-0.6,0-1.3-0.1-1.9c-0.2-1.6-1.3-3-2.8-3.7c-0.9-0.3-2-0.5-2.5-1.3c1.3-0.8,2.2-2.1,2.6-3.5c0.4-1.5,0.6-3,0.6-4.5l0.3-5
	c0.1-2.3,0.2-4.5,1.2-6.5c0.4-0.9,1-1.8,1.5-2.6c0.6-1.3,1.1-2.5,1.5-3.9c0.7-2.1,1.4-4.1,2.1-6.2c0.2-1,0.6-2,1.1-2.9
	C449.7,431.6,450.5,430.4,451.5,430.2z"/>
<path class="st20" d="M440.4,462.9h1.3l0.3-2c0-0.4,0.1-0.8,0.3-1.2c0.2-0.4,0.5-0.8,0.8-1.1c1.3-1.8,1.2-4.3,1.5-6.5
	c0.6-3,1.6-5.9,2.9-8.6l2.6-5.8c0.2-0.5,0.4-1,0.6-1.5c0.1-0.6,0.2-1.1,0.2-1.7c0-0.9,0.3-4.1,0.3-5c0-0.3-0.7-0.2-0.9-0.4
	c-0.3-0.6-0.8,1.1-1.4,1.5c-0.6,0.4-1,1-1.2,1.7c-0.6,1.4-0.9,3-1.4,4.4c-0.5,1.5-1.3,2.8-2.4,3.9c-0.5,0.5-1.1,0.8-1.6,1.3
	c-1.6,1.6-1.8,4.1-1.8,6.3C440.3,449.7,440.1,462.9,440.4,462.9z"/>
<path class="st20" d="M459.5,427.8c-1.3,0.7-2.1,1.9-2.4,3.3c-0.2,1.4-0.6,2.7-1.2,4c-1.6,2.8-5.8,3.6-6.9,6.7
	c-0.3,1-0.4,2.1-0.5,3.2c-0.2,2.2-0.9,4.3-1.1,6.5c-0.1,1.7-0.1,3.4,0.1,5.1l1.5,17.2c0.3,2.5,0.1,5.1-0.4,7.6c1.5,0.2,3,0,4.3-0.7
	c1.4-0.6,2.6-1.5,3.9-2.2c2.2-1.2,4.7-2.1,6.7-3.8c0.4-0.3,0.7-0.6,0.9-1c0.3-0.7,0.5-1.5,0.6-2.3c0.2-0.6,0.4-1.2,0.7-1.8
	c0.7-1.7,1.3-3.5,1.9-5.3c0.4-1.2,0.6-2.4,0.9-3.6c0.2-1,0.3-2,0.3-3c0.1-1.6,0.4-3.1,0.9-4.5c1.3-3.5,2-7.2,2.1-10.9
	c0-0.5,0-1.1-0.1-1.6c-0.2-0.6-0.5-1.3-0.9-1.8c-0.6-1.1-1-2.4-1.5-3.5c-1.4-2.5-3.5-4.7-5.9-6.2
	C462.2,428.2,460.8,427.4,459.5,427.8z"/>
<path class="st21" d="M429.3,455.9c-1-0.5-2-1.2-2.8-2.1c-0.4-0.4-0.7-0.9-1-1.3c-0.9-1-2.1-1.7-3.5-2c-1.3-0.3-2.7-0.4-4-0.4
	c-0.9-0.1-1.8,0-2.7,0.3c-0.9,0.3-1.5,1-1.8,1.9c-0.1,1.1,0.4,2.2,1.4,2.8c0.8,0.6,1.7,1.1,2.7,1.3c0.8,0.1,1.6,0.2,2.4,0.3
	c4.8,0.5,9,3.1,13.2,5.5c3.7,2.1,7.4,4,11.3,5.8c0.1-1.1,0.2-2.3,0.2-3.5c0-0.9-0.1-2.2-0.9-2.7c-1.2-0.5-2.4-0.8-3.6-1.1
	c-2.5-0.8-4.9-1.8-7.2-2.9C431.8,457.4,430.5,456.7,429.3,455.9z"/>
<ellipse class="st21" cx="450.2" cy="420.4" rx="8.5" ry="8.6"/>
<path class="st20" d="M461.9,437.5c-0.7,1-1.2,2-1.7,3.1c-1,2.2-2.7,4-3.5,6.3s-0.8,5.2-2.5,7.1c-0.3,0.3-0.6,0.7-0.8,1.1
	c0,0.3,0,0.5-0.1,0.8c-0.3,0.7-1.4,0.7-1.6,1.4c-0.1,0.2,0,0.4-0.1,0.6c-0.2,0.5-0.8,0.5-1.2,0.8c-0.8,0.6-0.7,1.9-1.3,2.7
	c-0.5,0.6-1.3,0.9-2.1,0.8c-0.8-0.2-1.5-0.4-2.2-0.8c-0.2-0.1-0.5-0.2-0.8-0.3c-0.3,0-0.7,0.1-0.9,0.3c-1.5,1.1-2.4,2.9-2.3,4.8
	c0.1,1.9,0.6,3.7,1.3,5.4c0.1,0.3,0.2,0.6,0.4,0.8c0.6,0.5,1.4,0.5,2.1,0.2c0.7-0.4,1.3-0.7,2.1-0.9c1.3-0.2,2.6,0.7,4,0.6
	c1-0.1,1.9-0.5,2.7-1.2c1.3-0.8,2.6-1.8,3.6-3c0.6-0.8,1-1.6,1.5-2.5c0.7-1,1.4-2,2.1-2.9l4.9-6c0.5-0.6,0.9-1.2,1.3-1.8
	c0.4-0.9,0.8-1.8,1-2.8c0.5-1.6,0.9-3.2,1-4.9c0-1.4-0.1-2.8-0.4-4.1c-0.1-1.3-0.5-2.7-1-3.9C466.5,437,463.9,435.2,461.9,437.5z"/>
<path class="st23" d="M479,426.4c0-3.1-1.5-6-3.9-7.8c-0.1-5.6-4.2-10.3-9.7-11.1c-1.2-6-7-9.9-13-8.7c-4.6,0.9-8.1,4.6-8.8,9.3
	c-3.5-0.8-6.8,0.2-7.4,2.4s1.9,5,5.6,6c1.2,0.3,2.4,0.5,3.6,0.4c1.8,2.6,4.5,4.3,7.6,4.8c0.9,4.2,4.1,7.5,8.3,8.6
	c0.6,1.4,1.4,2.6,2.6,3.5c0,0.3,0,0.5,0,0.8c0,4,3.2,7.2,7.2,7.2c4,0,7.2-3.2,7.2-7.2c0,0,0,0,0,0c0-1.1-0.2-2.2-0.7-3.2
	C478.6,429.8,479.1,428.1,479,426.4z"/>
<path class="st5" d="M438.6,410.9c0.6-2.2,3.8-3.2,7.4-2.4c0.9-5.4,5.5-9.4,11-9.5h0.7c-1-0.3-2.1-0.5-3.1-0.5
	c-5.5,0.1-10.1,4.1-11,9.5c-3.5-0.8-6.8,0.2-7.4,2.4s1.9,5,5.6,6c0.7,0.2,1.4,0.3,2.1,0.4C440.4,415.8,438,413.2,438.6,410.9z"/>
<path class="st5" d="M466.4,435c0-0.3,0-0.5,0-0.8c-1.1-1-2-2.2-2.6-3.5c-4.2-1-7.4-4.4-8.3-8.6c-3.1-0.4-5.9-2.2-7.6-4.7
	c-0.7,0.1-1.4,0-2.1-0.1c1.8,2.4,4.4,4,7.4,4.4c0.9,4.2,4.1,7.5,8.3,8.6c0.6,1.4,1.4,2.6,2.6,3.5c0,0.3,0,0.5,0,0.8
	c-0.1,4,3.1,7.4,7.2,7.5C468.2,440.9,466.3,438.1,466.4,435z"/>
<ellipse transform="matrix(0.7963 -0.6049 0.6049 0.7963 -163.0426 360.0131)" class="st21" cx="453" cy="422.1" rx="1.3" ry="1.8"/>
</svg>
